<?xml version="1.0" encoding="UTF-8" standalone="no"?>
<svg
   xmlns:dc="http://purl.org/dc/elements/1.1/"
   xmlns:cc="http://creativecommons.org/ns#"
   xmlns:rdf="http://www.w3.org/1999/02/22-rdf-syntax-ns#"
   xmlns:svg="http://www.w3.org/2000/svg"
   xmlns="http://www.w3.org/2000/svg"
   xmlns:sodipodi="http://sodipodi.sourceforge.net/DTD/sodipodi-0.dtd"
   xmlns:inkscape="http://www.inkscape.org/namespaces/inkscape"
   id="svg8"
   version="1.1"
   viewBox="0 0 12.7 12.7"
   height="48"
   width="48"
   sodipodi:docname="blacksun.svg"
   inkscape:version="0.92.3 (2405546, 2018-03-11)">
  <sodipodi:namedview
     pagecolor="#ffffff"
     bordercolor="#666666"
     borderopacity="1"
     objecttolerance="10"
     gridtolerance="10"
     guidetolerance="10"
     inkscape:pageopacity="0"
     inkscape:pageshadow="2"
     inkscape:window-width="1920"
     inkscape:window-height="1015"
     id="namedview33"
     showgrid="false"
     inkscape:zoom="13.455443"
     inkscape:cx="40.788951"
     inkscape:cy="28.868827"
     inkscape:window-x="0"
     inkscape:window-y="0"
     inkscape:window-maximized="1"
     inkscape:current-layer="svg8"
     units="px" />
  <defs
     id="defs2" />
  <metadata
     id="metadata5">
    <rdf:RDF>
      <cc:Work
         rdf:about="">
        <dc:format>image/svg+xml</dc:format>
        <dc:type
           rdf:resource="http://purl.org/dc/dcmitype/StillImage" />
        <dc:title></dc:title>
      </cc:Work>
    </rdf:RDF>
  </metadata>
  <g
     id="layer1"
     transform="matrix(0.09994833,0,0,0.09995355,-3.6612346,-7.423191)">
    <g
       style="fill:#424242;fill-opacity:1"
       transform="rotate(45,112.5475,137.58058)"
       id="g4679">
      <path
         id="path4731"
         d="m 100.35955,209.34044 -0.649432,-0.64943 v -11.40113 -11.40114 l 0.649432,-0.64943 c 0.61016,-0.61016 0.82401,-0.64943 3.53619,-0.64943 2.51983,0 2.97538,0.0697 3.5839,0.54837 l 0.69714,0.54837 v 11.50219 11.5022 l -0.64943,0.64943 c -0.61144,0.61145 -0.82107,0.64944 -3.5839,0.64944 -2.76283,0 -2.97246,-0.038 -3.5839,-0.64944 z M 59.189918,191.54711 c -2.236979,-2.1769 -2.580425,-2.83317 -2.095444,-4.00401 0.168739,-0.40738 3.788526,-4.21506 8.04397,-8.46153 7.547533,-7.53162 7.763012,-7.72086 8.79136,-7.72086 0.963414,0 1.230215,0.17707 3.098501,2.05638 1.855171,1.86611 2.044314,2.15277 2.044314,3.09832 0,1.01165 -0.221276,1.2641 -7.606771,8.67841 -4.183723,4.20005 -7.928278,7.80643 -8.321235,8.01417 -1.277759,0.67552 -1.763425,0.47155 -3.954695,-1.66088 z m 85.367072,1.53717 c -0.43656,-0.2747 -4.15726,-3.88071 -8.26823,-8.01336 -7.28085,-7.31926 -7.47448,-7.54121 -7.47448,-8.56775 0,-0.96297 0.1773,-1.23009 2.05638,-3.09814 1.86623,-1.85529 2.15273,-2.04432 3.0985,-2.04432 1.01254,0 1.26176,0.21918 8.7793,7.72086 4.25544,4.24647 7.87523,8.05415 8.04397,8.46153 0.48498,1.17084 0.14153,1.82711 -2.09545,4.00401 -2.2674,2.20652 -2.77608,2.39539 -4.13999,1.53717 z M 97.990326,175.6006 c -5.811522,-1.25788 -10.390872,-3.70168 -14.674566,-7.83118 -3.942725,-3.8008 -6.706346,-8.48232 -8.145208,-13.79782 -0.638831,-2.36 -0.700257,-3.0163 -0.700257,-7.48172 0,-4.46542 0.06143,-5.12172 0.700257,-7.48172 0.845584,-3.12379 2.594769,-6.90247 4.412226,-9.53151 1.611553,-2.33119 5.334203,-6.01569 7.659483,-7.58099 2.457342,-1.65419 6.25919,-3.37735 9.219475,-4.17868 2.359998,-0.63883 3.016295,-0.70026 7.481714,-0.70026 4.46542,0 5.12172,0.0614 7.48172,0.70026 5.3155,1.43886 9.99703,4.20248 13.79782,8.14521 3.66173,3.79846 6.13992,8.14954 7.49816,13.1649 0.63328,2.33842 0.69546,3.00558 0.69546,7.46279 0,4.45721 -0.0622,5.12436 -0.69546,7.46279 -2.80317,10.35081 -11.02234,18.58387 -21.24329,21.2792 -3.6614,0.96554 -9.93755,1.13712 -13.487534,0.36873 z m 5.953124,-29.12386 v -21.1798 l -1.65364,0.1803 c -9.333353,1.01767 -16.368677,6.96806 -18.743807,15.85327 -0.775266,2.90021 -0.771025,7.3458 0.0098,10.31874 1.759892,6.70028 6.408933,11.97663 12.676467,14.38696 2.064874,0.79409 5.05339,1.45947 7.11582,1.5843 l 0.59532,0.036 z m -62.850564,3.59704 c -0.611446,-0.61144 -0.649432,-0.82107 -0.649432,-3.5839 0,-2.76283 0.03799,-2.97246 0.649432,-3.5839 l 0.649432,-0.64943 h 11.353428 c 13.925328,0 12.747707,-0.38174 12.747707,4.13227 0,2.87013 -0.03538,3.07092 -0.649433,3.68496 l -0.64943,0.64943 H 53.143453 41.742318 Z m 101.498934,-0.0477 c -0.47867,-0.60852 -0.54837,-1.06407 -0.54837,-3.5839 0,-2.71218 0.0393,-2.92603 0.64943,-3.53619 l 0.64943,-0.64943 h 11.40114 11.40113 l 0.64943,0.64943 c 0.61145,0.61144 0.64944,0.82107 0.64944,3.5839 0,2.76283 -0.038,2.97246 -0.64944,3.5839 l -0.64943,0.64943 h -11.50219 -11.5022 z M 65.138444,113.89819 c -4.255444,-4.24647 -7.875231,-8.05415 -8.04397,-8.46153 -0.484981,-1.17084 -0.141535,-1.82711 2.095444,-4.00402 2.19127,-2.132421 2.676936,-2.336389 3.954695,-1.660874 0.392957,0.207745 4.137512,3.814124 8.321235,8.014174 7.415022,7.44396 7.606771,7.66302 7.606771,8.69047 0,0.96319 -0.177181,1.23015 -2.056373,3.09832 -1.866234,1.85529 -2.152735,2.04432 -3.098501,2.04432 -1.012545,0 -1.261766,-0.21918 -8.779301,-7.72086 z m 65.720156,5.66448 c -1.85517,-1.86611 -2.04432,-2.15278 -2.04432,-3.09832 0,-1.01165 0.22128,-1.2641 7.60677,-8.67841 4.18373,-4.20005 7.92828,-7.806429 8.32124,-8.014174 1.27776,-0.675515 1.76342,-0.471547 3.95469,1.660874 2.23698,2.17691 2.58043,2.83318 2.09545,4.00402 -0.16874,0.40738 -3.78853,4.21506 -8.04397,8.46153 -7.54754,7.53162 -7.76301,7.72086 -8.79136,7.72086 -0.96342,0 -1.23022,-0.17707 -3.0985,-2.05638 z M 100.25849,107.69274 C 99.723067,107.01206 99.710118,106.7275 99.710118,95.642175 V 84.288747 l 0.649432,-0.649432 c 0.61144,-0.611447 0.82107,-0.649432 3.5839,-0.649432 2.76283,0 2.97246,0.03798 3.5839,0.649432 l 0.64943,0.649432 v 11.401135 11.401138 l -0.64943,0.64943 c -0.61404,0.61405 -0.81483,0.64943 -3.68496,0.64943 -2.96419,0 -3.04842,-0.0164 -3.5839,-0.69714 z"
         style="fill:#424242;fill-opacity:1;stroke-width:0.26458332"
         inkscape:connector-curvature="0" />
      <path
         id="path4729"
         d="m 100.35955,209.34044 -0.649432,-0.64943 v -11.40113 -11.40114 l 0.649432,-0.64943 c 0.61144,-0.61145 0.82107,-0.64943 3.5839,-0.64943 2.76283,0 2.97246,0.038 3.5839,0.64943 l 0.64943,0.64943 v 11.40114 11.40113 l -0.64943,0.64943 c -0.61144,0.61145 -0.82107,0.64944 -3.5839,0.64944 -2.76283,0 -2.97246,-0.038 -3.5839,-0.64944 z M 59.189918,191.54711 c -2.239982,-2.17982 -2.580611,-2.83272 -2.092584,-4.01092 0.170312,-0.41117 3.793919,-4.21886 8.052461,-8.46153 7.529681,-7.50162 7.771582,-7.71395 8.788497,-7.71395 0.952826,0 1.227265,0.18264 3.090013,2.05638 1.855171,1.86611 2.044314,2.15277 2.044314,3.09832 0,1.01165 -0.221276,1.2641 -7.606771,8.67841 -4.183723,4.20005 -7.928278,7.80643 -8.321235,8.01417 -1.277759,0.67552 -1.763425,0.47155 -3.954695,-1.66088 z m 85.367072,1.5389 c -0.43656,-0.27374 -4.15726,-3.8837 -8.26823,-8.02213 -7.25802,-7.30651 -7.47448,-7.55468 -7.47448,-8.56948 0,-0.95203 0.18306,-1.22704 2.05638,-3.08937 3.28666,-3.26739 2.536,-3.62605 11.86645,5.66963 4.25854,4.24267 7.88215,8.05036 8.05246,8.46153 0.48802,1.1782 0.14739,1.8311 -2.09259,4.01092 -2.26677,2.2059 -2.77499,2.39482 -4.13999,1.5389 z M 98.560575,175.71589 c -11.207927,-2.10684 -20.377155,-10.61458 -23.378159,-21.6916 -0.657871,-2.42826 -0.714624,-3.03155 -0.708784,-7.53441 0.0058,-4.44063 0.07087,-5.13482 0.701762,-7.48172 0.797049,-2.96498 2.524768,-6.77638 4.169957,-9.19903 1.462667,-2.15387 4.65623,-5.48978 6.857503,-7.16315 2.409814,-1.83191 7.046052,-4.06354 10.199972,-4.90972 2.413368,-0.64748 3.075893,-0.71041 7.540624,-0.7162 4.50287,-0.006 5.10615,0.0509 7.53441,0.70878 10.30074,2.79069 18.46225,10.97519 21.23845,21.29825 0.62535,2.32532 0.69122,3.03056 0.69696,7.46279 0.006,4.50286 -0.0509,5.10615 -0.70878,7.53441 -2.78907,10.29473 -11.04427,18.52149 -21.29825,21.22487 -3.25751,0.85881 -9.54464,1.08725 -12.845665,0.46673 z m 5.382875,-29.23338 v -21.17403 l -1.78594,0.17546 c -5.085603,0.49965 -10.076512,2.90893 -13.440181,6.48803 -2.513679,2.67468 -3.938712,5.18431 -5.042453,8.88031 -0.591968,1.98227 -0.695187,2.82426 -0.691115,5.6376 0.004,2.78533 0.113861,3.67506 0.695904,5.6376 1.769253,5.96558 5.505786,10.50628 10.877751,13.21884 2.239301,1.13072 6.104774,2.13239 8.790724,2.27796 l 0.59531,0.0323 z m -62.850564,3.59127 c -0.611446,-0.61144 -0.649432,-0.82107 -0.649432,-3.5839 0,-2.76283 0.03799,-2.97246 0.649432,-3.5839 l 0.649432,-0.64943 H 53.143453 64.54459 l 0.64943,0.64943 c 0.611447,0.61144 0.649433,0.82107 0.649433,3.5839 0,2.76283 -0.03799,2.97246 -0.649433,3.5839 l -0.64943,0.64943 H 53.143453 41.742318 Z m 101.599994,0 c -0.61144,-0.61144 -0.64943,-0.82107 -0.64943,-3.5839 0,-2.76283 0.038,-2.97246 0.64943,-3.5839 l 0.64943,-0.64943 h 11.40114 11.40113 l 0.64943,0.64943 c 0.61145,0.61144 0.64944,0.82107 0.64944,3.5839 0,2.76283 -0.038,2.97246 -0.64944,3.5839 l -0.64943,0.64943 H 154.74345 143.34231 Z M 65.138444,113.89819 c -4.255444,-4.24647 -7.875231,-8.05415 -8.04397,-8.46153 -0.484981,-1.17084 -0.141535,-1.82711 2.095444,-4.00402 2.19127,-2.132421 2.676936,-2.336389 3.954695,-1.660874 0.392957,0.207745 4.137512,3.814124 8.321235,8.014174 7.415022,7.44396 7.606771,7.66302 7.606771,8.69047 0,0.96319 -0.177181,1.23015 -2.056373,3.09832 -1.866234,1.85529 -2.152735,2.04432 -3.098501,2.04432 -1.012545,0 -1.261766,-0.21918 -8.779301,-7.72086 z m 65.720156,5.66448 c -3.26739,-3.28666 -3.62605,-2.53599 5.66963,-11.86645 4.24267,-4.25854 8.05036,-7.882145 8.46153,-8.052457 1.1782,-0.488027 1.8311,-0.147398 4.01093,2.092587 2.13242,2.19127 2.33639,2.67693 1.66088,3.95469 -0.20775,0.39296 -3.81413,4.13751 -8.01418,8.32124 -7.44396,7.41502 -7.66302,7.60677 -8.69047,7.60677 -0.96319,0 -1.23015,-0.17718 -3.09832,-2.05638 z m -30.49905,-11.82222 -0.649432,-0.64943 V 95.689882 84.288747 l 0.649432,-0.649432 c 0.61144,-0.611447 0.82107,-0.649432 3.5839,-0.649432 2.76283,0 2.97246,0.03798 3.5839,0.649432 l 0.64943,0.649432 v 11.401135 11.401138 l -0.64943,0.64943 c -0.61144,0.61145 -0.82107,0.64943 -3.5839,0.64943 -2.76283,0 -2.97246,-0.038 -3.5839,-0.64943 z"
         style="fill:#424242;fill-opacity:1;stroke-width:0.26458332"
         inkscape:connector-curvature="0" />
      <path
         id="path4727"
         d="m 100.35955,209.34044 -0.649432,-0.64943 v -11.40113 -11.40114 l 0.649432,-0.64943 c 0.61144,-0.61145 0.82107,-0.64943 3.5839,-0.64943 2.76283,0 2.97246,0.038 3.5839,0.64943 l 0.64943,0.64943 v 11.40114 11.40113 l -0.64943,0.64943 c -0.61144,0.61145 -0.82107,0.64944 -3.5839,0.64944 -2.76283,0 -2.97246,-0.038 -3.5839,-0.64944 z M 59.189918,191.54711 c -1.152167,-1.12122 -2.167937,-2.32979 -2.257265,-2.6857 -0.0985,-0.39245 0.0188,-0.98363 0.29807,-1.50219 0.253267,-0.47029 3.880938,-4.26235 8.061492,-8.42679 7.421691,-7.3931 7.625997,-7.57172 8.660447,-7.57172 0.974976,0 1.221308,0.16633 3.089701,2.08628 3.213028,3.3017 3.574451,2.54082 -5.576515,11.73982 -4.183723,4.20569 -7.928278,7.81595 -8.321235,8.0228 -1.278939,0.67324 -1.764075,0.4693 -3.954695,-1.6625 z m 85.497872,1.57384 c -0.36463,-0.25371 -4.08533,-3.89892 -8.26823,-8.10049 -9.13612,-9.17688 -8.77089,-8.41235 -5.5489,-11.61543 3.2223,-3.2034 2.39217,-3.61474 11.93458,5.91371 4.38332,4.37691 8.03991,8.23785 8.12575,8.57986 0.25539,1.01755 -0.0623,1.5351 -2.2473,3.66145 -2.22311,2.16341 -2.8039,2.39028 -3.9959,1.5609 z M 98.698992,175.73966 c -12.302844,-2.32521 -21.691689,-11.74749 -24.004917,-24.09041 -0.654932,-3.49456 -0.420095,-9.12672 0.529142,-12.69069 1.70383,-6.39712 5.682104,-12.30437 10.979637,-16.30339 2.468496,-1.86343 7.070309,-4.07089 10.199972,-4.89285 3.584342,-0.94138 9.224714,-1.17313 12.700004,-0.52182 12.50361,2.34335 21.94877,11.88024 24.11626,24.35048 0.61542,3.54071 0.37702,8.96335 -0.5469,12.43952 -2.72641,10.25795 -10.88222,18.40986 -21.19742,21.1873 -2.20591,0.59395 -3.30635,0.72444 -6.73757,0.79894 -2.73898,0.0595 -4.744422,-0.0326 -6.038208,-0.27708 z m 5.244458,-29.28027 v -21.19715 l -1.52135,0.17071 c -9.570937,1.07393 -16.769138,7.24406 -19.009431,16.29443 -0.640196,2.58628 -0.631748,7.07741 0.01818,9.65729 1.769594,7.02452 6.972352,12.7244 13.765741,15.08106 1.236858,0.42907 4.81063,1.10567 6.15156,1.16464 l 0.5953,0.0262 z m -62.850564,3.61439 c -0.611446,-0.61144 -0.649432,-0.82107 -0.649432,-3.5839 0,-2.76283 0.03799,-2.97246 0.649432,-3.5839 l 0.649432,-0.64943 H 53.143453 64.54459 l 0.64943,0.64943 c 0.611447,0.61144 0.649433,0.82107 0.649433,3.5839 0,2.76283 -0.03799,2.97246 -0.649433,3.5839 l -0.64943,0.64943 H 53.143453 41.742318 Z m 101.599994,0 c -0.61144,-0.61144 -0.64943,-0.82107 -0.64943,-3.5839 0,-2.76283 0.038,-2.97246 0.64943,-3.5839 l 0.64943,-0.64943 h 11.40114 11.40113 l 0.64943,0.64943 c 0.61145,0.61144 0.64944,0.82107 0.64944,3.5839 0,2.76283 -0.038,2.97246 -0.64944,3.5839 l -0.64943,0.64943 H 154.74345 143.34231 Z M 65.085819,113.66082 c -4.373114,-4.37703 -8.02646,-8.19562 -8.118548,-8.48576 -0.309469,-0.97506 0.117261,-1.69357 2.222647,-3.74242 1.503165,-1.462795 2.285715,-2.038591 2.770601,-2.038591 0.892989,0 1.635344,0.673201 10.034496,9.099701 8.523557,8.55131 8.208944,7.85684 5.009044,11.05674 -3.230097,3.23009 -2.393651,3.64344 -11.91824,-5.88967 z m 65.814741,5.92797 c -1.9193,-1.86776 -2.08628,-2.11497 -2.08628,-3.0887 0,-1.03133 0.18467,-1.24441 7.2099,-8.31944 3.96544,-3.99356 7.67424,-7.60427 8.24178,-8.02381 1.58805,-1.173922 2.05053,-1.040762 4.43102,1.2758 2.23998,2.17983 2.58061,2.83273 2.09259,4.01093 -0.17031,0.41117 -3.79392,4.21886 -8.05246,8.46153 -9.30872,9.27403 -8.53092,8.90055 -11.83655,5.68369 z m -30.54101,-11.84834 -0.649432,-0.64943 V 95.689882 84.288747 l 0.649432,-0.649432 c 0.61144,-0.611447 0.82107,-0.649432 3.5839,-0.649432 2.76283,0 2.97246,0.03798 3.5839,0.649432 l 0.64943,0.649432 v 11.401135 11.401138 l -0.64943,0.64943 c -0.61144,0.61145 -0.82107,0.64943 -3.5839,0.64943 -2.76283,0 -2.97246,-0.038 -3.5839,-0.64943 z"
         style="fill:#424242;fill-opacity:1;stroke-width:0.26458332"
         inkscape:connector-curvature="0" />
      <path
         id="path4725"
         d="m 100.35955,209.34044 -0.649432,-0.64943 v -11.40113 -11.40114 l 0.649432,-0.64943 c 0.61144,-0.61145 0.82107,-0.64943 3.5839,-0.64943 2.76283,0 2.97246,0.038 3.5839,0.64943 l 0.64943,0.64943 v 11.40114 11.40113 l -0.64943,0.64943 c -0.61144,0.61145 -0.82107,0.64944 -3.5839,0.64944 -2.76283,0 -2.97246,-0.038 -3.5839,-0.64944 z M 59.047441,191.38589 c -1.744745,-1.74475 -2.199821,-2.35847 -2.199821,-2.9667 0,-0.65275 1.209959,-1.97915 8.130227,-8.91267 9.736659,-9.75532 8.884489,-9.3273 12.064516,-6.05953 3.199952,3.28826 3.516629,2.59421 -5.17964,11.35213 -3.965442,3.99355 -7.674244,7.60426 -8.241781,8.02379 -1.625736,1.20179 -2.076242,1.06024 -4.573501,-1.43702 z m 85.640349,1.73506 c -0.36463,-0.25371 -4.08533,-3.89892 -8.26823,-8.10049 -9.13612,-9.17688 -8.77089,-8.41235 -5.5489,-11.61543 3.2223,-3.2034 2.39217,-3.61474 11.93458,5.91371 4.38332,4.37691 8.03991,8.23785 8.12575,8.57986 0.25539,1.01755 -0.0623,1.5351 -2.2473,3.66145 -2.22311,2.16341 -2.8039,2.39028 -3.9959,1.5609 z M 98.638913,175.73066 c -2.255909,-0.42749 -6.079202,-1.71733 -8.05692,-2.71811 -8.224202,-4.16168 -14.29459,-12.34299 -15.872639,-21.39219 -3.164202,-18.14487 10.81124,-34.76381 29.234096,-34.76381 13.12399,0 24.41671,8.36883 28.39175,21.04063 1.00126,3.19182 1.33478,6.0584 1.16585,10.02018 -0.32483,7.61774 -3.25167,14.17582 -8.75329,19.61321 -3.88044,3.83516 -8.19099,6.32243 -13.34505,7.70038 -3.22533,0.86231 -9.54475,1.10972 -12.763797,0.49971 z m 5.304537,-29.26676 v -21.19264 l -1.65364,0.18011 c -2.66361,0.29012 -4.863287,0.86903 -6.929693,1.82377 -6.058511,2.79921 -10.280467,7.86345 -11.938256,14.31995 -0.638779,2.48781 -0.635646,7.25464 0.0064,9.78958 2.325283,9.1803 10.420791,15.82426 19.787559,16.23961 l 0.7276,0.0323 z m -62.850564,3.60988 c -0.611446,-0.61144 -0.649432,-0.82107 -0.649432,-3.5839 0,-2.76283 0.03799,-2.97246 0.649432,-3.5839 l 0.649432,-0.64943 H 53.143453 64.54459 l 0.64943,0.64943 c 0.611447,0.61144 0.649433,0.82107 0.649433,3.5839 0,2.76283 -0.03799,2.97246 -0.649433,3.5839 l -0.64943,0.64943 H 53.143453 41.742318 Z m 101.599994,0 c -0.61144,-0.61144 -0.64943,-0.82107 -0.64943,-3.5839 0,-2.76283 0.038,-2.97246 0.64943,-3.5839 l 0.64943,-0.64943 h 11.40114 11.40113 l 0.64943,0.64943 c 0.61145,0.61144 0.64944,0.82107 0.64944,3.5839 0,2.76283 -0.038,2.97246 -0.64944,3.5839 l -0.64943,0.64943 H 154.74345 143.34231 Z M 65.085819,113.66082 c -4.373114,-4.37703 -8.02646,-8.19562 -8.118548,-8.48576 -0.309469,-0.97506 0.117261,-1.69357 2.222647,-3.74242 1.503165,-1.462795 2.285715,-2.038591 2.770601,-2.038591 0.892989,0 1.635344,0.673201 10.034496,9.099701 8.523557,8.55131 8.208944,7.85684 5.009044,11.05674 -3.230097,3.23009 -2.393651,3.64344 -11.91824,-5.88967 z m 65.814741,5.92797 c -3.26777,-3.18003 -3.69578,-2.32786 6.05953,-12.06451 6.8395,-6.82643 8.26577,-8.130231 8.89392,-8.130231 0.57512,0 1.23255,0.471421 2.84297,2.038591 1.15217,1.12123 2.16794,2.3298 2.25727,2.68571 0.0985,0.39246 -0.0188,0.98362 -0.29807,1.50219 -0.25327,0.47029 -3.88094,4.26235 -8.06149,8.42679 -9.14643,9.11118 -8.39285,8.75409 -11.69413,5.54146 z m -30.54101,-11.84834 -0.649432,-0.64943 V 95.689882 84.288747 l 0.649432,-0.649432 c 0.61144,-0.611447 0.82107,-0.649432 3.5839,-0.649432 2.76283,0 2.97246,0.03798 3.5839,0.649432 l 0.64943,0.649432 v 11.401135 11.401138 l -0.64943,0.64943 c -0.61144,0.61145 -0.82107,0.64943 -3.5839,0.64943 -2.76283,0 -2.97246,-0.038 -3.5839,-0.64943 z"
         style="fill:#424242;fill-opacity:1;stroke-width:0.26458332"
         inkscape:connector-curvature="0" />
      <path
         id="path4723"
         d="m 100.35955,209.34044 -0.649432,-0.64943 v -11.40113 -11.40114 l 0.649432,-0.64943 c 0.61144,-0.61145 0.82107,-0.64943 3.5839,-0.64943 2.76283,0 2.97246,0.038 3.5839,0.64943 l 0.64943,0.64943 v 11.40114 11.40113 l -0.64943,0.64943 c -0.61144,0.61145 -0.82107,0.64944 -3.5839,0.64944 -2.76283,0 -2.97246,-0.038 -3.5839,-0.64944 z M 61.213245,193.33348 c -0.291042,-0.12028 -1.39237,-1.11207 -2.447396,-2.20399 -1.458198,-1.50918 -1.918229,-2.16419 -1.918229,-2.73123 0,-0.62529 1.315039,-2.0635 8.130227,-8.89174 9.705184,-9.72378 8.824645,-9.27881 12.026212,-6.07725 3.201567,3.20157 3.646532,2.32103 -6.077244,12.02621 -5.330017,5.31983 -8.325309,8.12443 -8.665102,8.11346 -0.285616,-0.009 -0.757427,-0.11518 -1.048468,-0.23546 z m 75.783845,-7.84107 c -9.76598,-9.7473 -9.31663,-8.86075 -6.11425,-12.06314 3.20239,-3.20238 2.31584,-3.65173 12.06314,6.11424 9.57857,9.59692 9.1078,8.65191 5.90541,11.85431 -3.2024,3.20239 -2.25739,3.67316 -11.8543,-5.90541 z m -38.302898,-9.78102 c -15.978544,-2.91748 -26.774144,-18.35693 -23.991788,-34.31214 1.003649,-5.75535 3.701266,-11.07945 7.778453,-15.35179 13.066553,-13.692 35.455813,-11.82981 46.014953,3.82721 1.66632,2.47081 2.44343,4.01992 3.45308,6.88339 4.46987,12.67702 -0.45038,27.16676 -11.70383,34.46685 -2.63045,1.70637 -3.69853,2.24815 -6.24744,3.16895 -4.52964,1.63633 -10.66459,2.16452 -15.303428,1.31753 z m 5.249258,-29.24257 V 125.2811 l -1.78594,0.1863 c -2.878068,0.30024 -5.46555,1.07337 -8.076048,2.41309 -2.000422,1.02662 -2.897301,1.70897 -4.967869,3.77953 -4.270729,4.27073 -6.116733,8.67853 -6.155396,14.69757 -0.03892,6.05767 1.841145,10.6168 6.168051,14.95751 2.086859,2.09352 2.930572,2.73313 4.96503,3.76396 3.197826,1.62028 6.020222,2.40757 9.124572,2.54522 l 0.7276,0.0323 z m -62.850564,3.60496 c -0.611446,-0.61144 -0.649432,-0.82107 -0.649432,-3.5839 0,-2.76283 0.03799,-2.97246 0.649432,-3.5839 l 0.649432,-0.64943 H 53.143453 64.54459 l 0.64943,0.64943 c 0.611447,0.61144 0.649433,0.82107 0.649433,3.5839 0,2.76283 -0.03799,2.97246 -0.649433,3.5839 l -0.64943,0.64943 H 53.143453 41.742318 Z m 101.599994,0 c -0.61144,-0.61144 -0.64943,-0.82107 -0.64943,-3.5839 0,-2.76283 0.038,-2.97246 0.64943,-3.5839 l 0.64943,-0.64943 h 11.40114 11.40113 l 0.64943,0.64943 c 0.61145,0.61144 0.64944,0.82107 0.64944,3.5839 0,2.76283 -0.038,2.97246 -0.64944,3.5839 l -0.64943,0.64943 H 154.74345 143.34231 Z M 64.977847,113.47324 c -6.920268,-6.93352 -8.130227,-8.25993 -8.130227,-8.91267 0,-0.60824 0.455076,-1.22195 2.199821,-2.9667 1.744746,-1.744745 2.358465,-2.199821 2.966697,-2.199821 0.652748,0 1.979153,1.209961 8.912677,8.130231 9.723776,9.70518 9.278811,8.82464 6.077244,12.02621 -3.201567,3.20156 -2.321028,3.64653 -12.026212,-6.07725 z m 65.904993,6.07725 c -3.20156,-3.20157 -3.64653,-2.32103 6.07725,-12.02621 6.86402,-6.8509 8.26428,-8.130231 8.89872,-8.130231 0.58376,0 1.22042,0.460715 2.83364,2.050521 3.39786,3.34855 3.876,2.35077 -5.74647,11.99168 -9.7473,9.76597 -8.86075,9.31662 -12.06314,6.11424 z m -30.52329,-11.81004 -0.649432,-0.64943 V 95.689882 84.288747 l 0.649432,-0.649432 c 0.61144,-0.611447 0.82107,-0.649432 3.5839,-0.649432 2.76283,0 2.97246,0.03798 3.5839,0.649432 l 0.64943,0.649432 v 11.401135 11.401138 l -0.64943,0.64943 c -0.61144,0.61145 -0.82107,0.64943 -3.5839,0.64943 -2.76283,0 -2.97246,-0.038 -3.5839,-0.64943 z"
         style="fill:#424242;fill-opacity:1;stroke-width:0.26458332"
         inkscape:connector-curvature="0" />
      <path
         id="path4721"
         d="m 100.35955,209.34044 -0.649432,-0.64943 v -11.40113 -11.40114 l 0.649432,-0.64943 c 0.61144,-0.61145 0.82107,-0.64943 3.5839,-0.64943 2.76283,0 2.97246,0.038 3.5839,0.64943 l 0.64943,0.64943 v 11.40114 11.40113 l -0.64943,0.64943 c -0.61144,0.61145 -0.82107,0.64944 -3.5839,0.64944 -2.76283,0 -2.97246,-0.038 -3.5839,-0.64944 z M 61.213245,193.33348 c -0.291042,-0.12028 -1.39237,-1.11207 -2.447396,-2.20399 -1.458198,-1.50918 -1.918229,-2.16419 -1.918229,-2.73123 0,-0.62529 1.315039,-2.0635 8.130227,-8.89174 9.705184,-9.72378 8.824645,-9.27881 12.026212,-6.07725 3.201567,3.20157 3.646532,2.32103 -6.077244,12.02621 -5.330017,5.31983 -8.325309,8.12443 -8.665102,8.11346 -0.285616,-0.009 -0.757427,-0.11518 -1.048468,-0.23546 z m 75.783845,-7.84107 c -9.76598,-9.7473 -9.31663,-8.86075 -6.11425,-12.06314 3.20239,-3.20238 2.31584,-3.65173 12.06314,6.11424 9.57857,9.59692 9.1078,8.65191 5.90541,11.85431 -3.2024,3.20239 -2.25739,3.67316 -11.8543,-5.90541 z m -38.128014,-9.76535 c -10.655233,-1.79314 -19.795378,-9.76995 -23.193339,-20.24135 -1.915784,-5.90381 -1.785676,-12.98649 0.348236,-18.95692 5.847705,-16.36116 24.328597,-24.16239 40.289137,-17.00702 5.69688,2.554 11.36198,8.05293 14.29042,13.87124 0.9975,1.98185 2.18703,5.74892 2.57954,8.169 1.89171,11.66353 -3.20523,23.34927 -12.93801,29.6629 -2.63045,1.70637 -3.69853,2.24815 -6.24744,3.16895 -4.50923,1.62896 -10.32537,2.14151 -15.128544,1.3332 z m 5.074374,-29.268 v -21.19749 l -1.78594,0.19106 c -2.870032,0.30704 -5.461692,1.08616 -8.076048,2.42786 -2.000422,1.02662 -2.897301,1.70897 -4.967869,3.77953 -2.070566,2.07057 -2.752907,2.96745 -3.779536,4.96787 -1.823262,3.5527 -2.369182,5.82516 -2.369182,9.86199 0,4.04054 0.5471,6.31462 2.372611,9.86199 1.005213,1.95335 1.734003,2.9224 3.647244,4.84965 2.44289,2.46079 4.30924,3.70349 7.523644,5.00962 1.613551,0.65565 4.948666,1.37675 6.575186,1.42166 l 0.85989,0.0238 z m -62.850564,3.61472 c -0.611446,-0.61144 -0.649432,-0.82107 -0.649432,-3.5839 0,-2.76283 0.03799,-2.97246 0.649432,-3.5839 l 0.649432,-0.64943 H 53.143453 64.54459 l 0.64943,0.64943 c 0.611447,0.61144 0.649433,0.82107 0.649433,3.5839 0,2.76283 -0.03799,2.97246 -0.649433,3.5839 l -0.64943,0.64943 H 53.143453 41.742318 Z m 101.599994,0 c -0.61144,-0.61144 -0.64943,-0.82107 -0.64943,-3.5839 0,-2.76283 0.038,-2.97246 0.64943,-3.5839 l 0.64943,-0.64943 h 11.40114 11.40113 l 0.64943,0.64943 c 0.61145,0.61144 0.64944,0.82107 0.64944,3.5839 0,2.76283 -0.038,2.97246 -0.64944,3.5839 l -0.64943,0.64943 H 154.74345 143.34231 Z M 64.977847,113.47324 c -6.920268,-6.93352 -8.130227,-8.25993 -8.130227,-8.91267 0,-0.60824 0.455076,-1.22195 2.199821,-2.9667 1.744746,-1.744745 2.358465,-2.199821 2.966697,-2.199821 0.652748,0 1.979153,1.209961 8.912677,8.130231 9.723776,9.70518 9.278811,8.82464 6.077244,12.02621 -3.201567,3.20156 -2.321028,3.64653 -12.026212,-6.07725 z m 65.904993,6.07725 c -3.20156,-3.20157 -3.64653,-2.32103 6.07725,-12.02621 6.86402,-6.8509 8.26428,-8.130231 8.89872,-8.130231 0.58376,0 1.22042,0.460715 2.83364,2.050521 3.39786,3.34855 3.876,2.35077 -5.74647,11.99168 -9.7473,9.76597 -8.86075,9.31662 -12.06314,6.11424 z m -30.52329,-11.81004 -0.649432,-0.64943 V 95.689882 84.288747 l 0.649432,-0.649432 c 0.61144,-0.611447 0.82107,-0.649432 3.5839,-0.649432 2.76283,0 2.97246,0.03798 3.5839,0.649432 l 0.64943,0.649432 v 11.401135 11.401138 l -0.64943,0.64943 c -0.61144,0.61145 -0.82107,0.64943 -3.5839,0.64943 -2.76283,0 -2.97246,-0.038 -3.5839,-0.64943 z"
         style="fill:#424242;fill-opacity:1;stroke-width:0.26458332"
         inkscape:connector-curvature="0" />
      <path
         id="path4719"
         d="m 100.35955,209.34044 -0.649432,-0.64943 v -11.40113 -11.40114 l 0.649432,-0.64943 c 0.61144,-0.61145 0.82107,-0.64943 3.5839,-0.64943 2.76283,0 2.97246,0.038 3.5839,0.64943 l 0.64943,0.64943 v 11.40114 11.40113 l -0.64943,0.64943 c -0.61144,0.61145 -0.82107,0.64944 -3.5839,0.64944 -2.76283,0 -2.97246,-0.038 -3.5839,-0.64944 z M 61.213245,193.33373 c -0.291042,-0.12641 -1.329866,-1.04416 -2.308498,-2.03945 -3.047702,-3.09957 -3.511486,-2.19781 6.045782,-11.75508 9.753306,-9.7533 8.86197,-9.30149 12.05353,-6.10993 3.194568,3.19457 3.623797,2.33575 -5.935086,11.87515 -5.022468,5.01224 -8.250022,8.03796 -8.665103,8.12324 -0.363802,0.0747 -0.899584,0.0325 -1.190625,-0.0939 z m 83.872915,-5.3e-4 c -0.29104,-0.12668 -4.07128,-3.78745 -8.40052,-8.13505 -9.39843,-9.43827 -8.98069,-8.59103 -5.8028,-11.76892 3.18427,-3.18427 2.31039,-3.62255 11.93224,5.98441 9.63053,9.61564 9.22037,8.81343 6.09431,11.91929 -1.98474,1.97191 -2.84923,2.4242 -3.82323,2.00027 z M 98.978505,175.74414 c -6.342816,-1.20628 -11.465683,-3.8737 -15.931448,-8.29533 -5.364329,-5.31132 -8.324598,-12.02997 -8.662161,-19.65973 -0.221237,-5.00045 0.851696,-10.32947 2.898476,-14.39607 2.776481,-5.5164 8.046809,-10.78673 13.563205,-13.56321 4.0666,-2.04678 9.395623,-3.11971 14.396083,-2.89848 7.62975,0.33757 14.3484,3.29784 19.65972,8.66217 3.84959,3.88801 6.35772,8.2864 7.81668,13.70778 0.61792,2.29613 0.6885,3.03306 0.6885,7.18861 0,4.15555 -0.0706,4.89248 -0.6885,7.18861 -2.90968,10.81211 -10.87981,18.77427 -21.587,21.56543 -3.19642,0.83324 -9.12041,1.07707 -12.153555,0.50022 z m 4.964945,-29.28508 v -21.19749 l -1.78594,0.17863 c -8.097077,0.80989 -14.868452,5.89196 -17.879833,13.41923 -0.38195,0.95473 -0.889077,2.85379 -1.126951,4.22014 -0.791982,4.54918 -0.07555,8.86988 2.20898,13.32196 0.998146,1.94518 1.698688,2.86301 3.753887,4.91821 2.065999,2.066 2.960939,2.74752 4.907983,3.73759 1.309688,0.66598 2.840855,1.35822 3.402595,1.53831 1.28456,0.41182 4.524499,1.00551 5.659389,1.03703 l 0.85989,0.0239 z m -62.850564,3.61472 c -0.611446,-0.61144 -0.649432,-0.82107 -0.649432,-3.5839 0,-2.76283 0.03799,-2.97246 0.649432,-3.5839 l 0.649432,-0.64943 H 53.143453 64.54459 l 0.64943,0.64943 c 0.611447,0.61144 0.649433,0.82107 0.649433,3.5839 0,2.76283 -0.03799,2.97246 -0.649433,3.5839 l -0.64943,0.64943 H 53.143453 41.742318 Z m 101.599994,0 c -0.61144,-0.61144 -0.64943,-0.82107 -0.64943,-3.5839 0,-2.76283 0.038,-2.97246 0.64943,-3.5839 l 0.64943,-0.64943 h 11.40114 11.40113 l 0.64943,0.64943 c 0.61145,0.61144 0.64944,0.82107 0.64944,3.5839 0,2.76283 -0.038,2.97246 -0.64944,3.5839 l -0.64943,0.64943 H 154.74345 143.34231 Z M 64.950529,113.44056 c -9.594355,-9.59436 -9.12342,-8.65021 -5.915015,-11.85862 3.208405,-3.208402 2.26426,-3.679337 11.858615,5.91502 9.753306,9.7533 9.301487,8.86197 6.10993,12.05353 -3.19156,3.19156 -2.300224,3.64337 -12.05353,-6.10993 z m 65.932311,6.10993 c -3.20238,-3.20239 -3.65173,-2.31584 6.11425,-12.06314 9.61026,-9.591893 8.6416,-9.116164 11.9123,-5.85036 3.1184,3.11375 3.53088,2.30532 -6.08379,11.92387 -9.6168,9.62068 -8.74762,9.18477 -11.94276,5.98963 z m -30.52329,-11.81004 -0.649432,-0.64943 V 95.689882 84.288747 l 0.649432,-0.649432 c 0.61144,-0.611447 0.82107,-0.649432 3.5839,-0.649432 2.76283,0 2.97246,0.03798 3.5839,0.649432 l 0.64943,0.649432 v 11.401135 11.401138 l -0.64943,0.64943 c -0.61144,0.61145 -0.82107,0.64943 -3.5839,0.64943 -2.76283,0 -2.97246,-0.038 -3.5839,-0.64943 z"
         style="fill:#424242;fill-opacity:1;stroke-width:0.26458332"
         inkscape:connector-curvature="0" />
      <path
         id="path4717"
         d="m 100.35955,209.34044 -0.649432,-0.64943 v -11.40113 -11.40114 l 0.649432,-0.64943 c 0.61144,-0.61145 0.82107,-0.64943 3.5839,-0.64943 2.76283,0 2.97246,0.038 3.5839,0.64943 l 0.64943,0.64943 v 11.40114 11.40113 l -0.64943,0.64943 c -0.61144,0.61145 -0.82107,0.64944 -3.5839,0.64944 -2.76283,0 -2.97246,-0.038 -3.5839,-0.64944 z M 61.213245,193.33373 c -0.291042,-0.12641 -1.356651,-1.07115 -2.368021,-2.09941 -2.95931,-3.00876 -3.359137,-2.24972 6.226598,-11.82063 9.621845,-9.60696 8.747971,-9.16868 11.932237,-5.98442 3.183996,3.184 3.616139,2.31998 -5.935086,11.8664 -5.048718,5.04618 -8.247853,8.04914 -8.665103,8.13375 -0.363802,0.0738 -0.899584,0.0307 -1.190625,-0.0957 z m 83.872915,-5.3e-4 c -0.29104,-0.12668 -4.07128,-3.78745 -8.40052,-8.13505 -9.39843,-9.43827 -8.98069,-8.59103 -5.8028,-11.76892 3.18427,-3.18427 2.31039,-3.62255 11.93224,5.98441 9.63053,9.61564 9.22037,8.81343 6.09431,11.91929 -1.98474,1.97191 -2.84923,2.4242 -3.82323,2.00027 z M 98.978505,175.74414 c -6.355325,-1.20866 -11.553517,-3.91993 -15.930757,-8.30915 -5.417534,-5.43237 -8.325805,-12.02784 -8.662852,-19.64591 -0.37618,-8.50249 2.621407,-16.2298 8.624683,-22.23307 6.003276,-6.00328 13.730578,-9.00086 22.233081,-8.62469 7.61806,0.33705 14.21354,3.24532 19.6459,8.66286 3.81753,3.8071 6.36753,8.27081 7.8305,13.70709 0.61792,2.29613 0.6885,3.03306 0.6885,7.18861 0,4.15555 -0.0706,4.89248 -0.6885,7.18861 -2.90316,10.78788 -10.9038,18.78052 -21.587,21.56543 -3.19642,0.83324 -9.12041,1.07707 -12.153555,0.50022 z m 4.964945,-29.28845 v -21.20085 l -1.8474,0.18204 c -5.274317,0.51972 -9.740965,2.71378 -13.429251,6.59659 -6.160426,6.48532 -7.580685,15.78167 -3.631782,23.77195 2.232081,4.51644 6.125602,8.19914 10.720001,10.13955 1.846326,0.77979 5.600692,1.66302 7.196242,1.69296 l 0.99219,0.0186 z m -62.850564,3.61809 c -0.611446,-0.61144 -0.649432,-0.82107 -0.649432,-3.5839 0,-2.76283 0.03799,-2.97246 0.649432,-3.5839 l 0.649432,-0.64943 H 53.143453 64.54459 l 0.64943,0.64943 c 0.611447,0.61144 0.649433,0.82107 0.649433,3.5839 0,2.76283 -0.03799,2.97246 -0.649433,3.5839 l -0.64943,0.64943 H 53.143453 41.742318 Z m 101.599994,0 c -0.61144,-0.61144 -0.64943,-0.82107 -0.64943,-3.5839 0,-2.76283 0.038,-2.97246 0.64943,-3.5839 l 0.64943,-0.64943 h 11.40114 11.40113 l 0.64943,0.64943 c 0.61145,0.61144 0.64944,0.82107 0.64944,3.5839 0,2.76283 -0.038,2.97246 -0.64944,3.5839 l -0.64943,0.64943 H 154.74345 143.34231 Z M 64.950529,113.44056 c -9.594355,-9.59436 -9.12342,-8.65021 -5.915015,-11.85862 3.208405,-3.208402 2.26426,-3.679337 11.858615,5.91502 9.753306,9.7533 9.301487,8.86197 6.10993,12.05353 -3.19156,3.19156 -2.300224,3.64337 -12.05353,-6.10993 z m 65.932311,6.10993 c -3.18426,-3.18427 -3.62254,-2.31039 5.98442,-11.93224 9.63168,-9.646599 8.79917,-9.227167 11.98708,-6.03925 3.18791,3.18791 3.60734,2.35539 -6.03926,11.98707 -9.62185,9.60696 -8.74797,9.16868 -11.93224,5.98442 z m -30.52329,-11.81004 -0.649432,-0.64943 V 95.689882 84.288747 l 0.649432,-0.649432 c 0.61144,-0.611447 0.82107,-0.649432 3.5839,-0.649432 2.76283,0 2.97246,0.03798 3.5839,0.649432 l 0.64943,0.649432 v 11.401135 11.401138 l -0.64943,0.64943 c -0.61144,0.61145 -0.82107,0.64943 -3.5839,0.64943 -2.76283,0 -2.97246,-0.038 -3.5839,-0.64943 z"
         style="fill:#424242;fill-opacity:1;stroke-width:0.26458332"
         inkscape:connector-curvature="0" />
      <path
         id="path4715"
         d="m 100.35955,209.34044 -0.649432,-0.64943 v -11.40113 -11.40114 l 0.649432,-0.64943 c 0.61144,-0.61145 0.82107,-0.64943 3.5839,-0.64943 2.76283,0 2.97246,0.038 3.5839,0.64943 l 0.64943,0.64943 v 11.40114 11.40113 l -0.64943,0.64943 c -0.61144,0.61145 -0.82107,0.64944 -3.5839,0.64944 -2.76283,0 -2.97246,-0.038 -3.5839,-0.64944 z M 61.213245,193.33373 c -0.291042,-0.12641 -1.356651,-1.07115 -2.368021,-2.09941 -2.95931,-3.00876 -3.359137,-2.24972 6.226598,-11.82063 9.621845,-9.60696 8.747971,-9.16868 11.932237,-5.98442 3.183996,3.184 3.616139,2.31998 -5.935086,11.8664 -5.048718,5.04618 -8.247853,8.04914 -8.665103,8.13375 -0.363802,0.0738 -0.899584,0.0307 -1.190625,-0.0957 z m 83.872915,-5.3e-4 c -0.29104,-0.12668 -4.07128,-3.78745 -8.40052,-8.13505 -9.39843,-9.43827 -8.98069,-8.59103 -5.8028,-11.76892 3.18427,-3.18427 2.31039,-3.62255 11.93224,5.98441 9.63053,9.61564 9.22037,8.81343 6.09431,11.91929 -1.98474,1.97191 -2.84923,2.4242 -3.82323,2.00027 z M 99.60025,175.84764 c -6.312501,-0.99014 -12.03167,-3.90429 -16.57097,-8.44359 -3.866854,-3.86685 -6.397246,-8.28475 -7.861443,-13.72556 -0.617918,-2.29613 -0.688498,-3.03306 -0.688498,-7.18861 0,-4.15555 0.07058,-4.89248 0.688498,-7.18861 2.908049,-10.80602 10.780985,-18.67896 21.587007,-21.587 2.296131,-0.61792 3.033056,-0.6885 7.188606,-0.6885 4.15555,0 4.89248,0.0706 7.18861,0.6885 10.7837,2.90204 18.7167,10.83763 21.57997,21.587 0.59892,2.24848 0.68403,3.10328 0.70253,7.05632 0.0179,3.82867 -0.067,4.84592 -0.57051,6.83681 -2.82442,11.16706 -11.02421,19.40156 -22.05766,22.15101 -2.53666,0.63211 -8.61751,0.90513 -11.18614,0.50223 z m 4.3432,-29.39195 v -21.20085 l -1.8474,0.18204 c -5.274317,0.51972 -9.740965,2.71378 -13.429251,6.59659 -3.255624,3.42732 -5.09983,7.34903 -5.702969,12.12737 -0.536186,4.24793 0.515281,9.17927 2.781408,13.04466 1.409219,2.40375 5.078841,6.07337 7.482589,7.48259 2.804935,1.64442 6.781653,2.84582 9.723433,2.93753 l 0.99219,0.0309 z m -62.850564,3.61809 c -0.611446,-0.61144 -0.649432,-0.82107 -0.649432,-3.5839 0,-2.76283 0.03799,-2.97246 0.649432,-3.5839 l 0.649432,-0.64943 H 53.143453 64.54459 l 0.64943,0.64943 c 0.611447,0.61144 0.649433,0.82107 0.649433,3.5839 0,2.76283 -0.03799,2.97246 -0.649433,3.5839 l -0.64943,0.64943 H 53.143453 41.742318 Z m 101.599994,0 c -0.61144,-0.61144 -0.64943,-0.82107 -0.64943,-3.5839 0,-2.76283 0.038,-2.97246 0.64943,-3.5839 l 0.64943,-0.64943 h 11.40114 11.40113 l 0.64943,0.64943 c 0.61145,0.61144 0.64944,0.82107 0.64944,3.5839 0,2.76283 -0.038,2.97246 -0.64944,3.5839 l -0.64943,0.64943 H 154.74345 143.34231 Z M 65.071822,113.56607 c -9.6466,-9.63168 -9.227168,-8.79916 -6.039256,-11.98707 3.187912,-3.187917 2.355398,-3.607349 11.987076,6.03925 9.606959,9.62185 9.168682,8.74797 5.984417,11.93224 -3.184266,3.18426 -2.310392,3.62254 -11.932237,-5.98442 z m 65.811018,5.98442 c -3.18426,-3.18427 -3.62254,-2.31039 5.98442,-11.93224 9.63168,-9.646599 8.79917,-9.227167 11.98708,-6.03925 3.18791,3.18791 3.60734,2.35539 -6.03926,11.98707 -9.62185,9.60696 -8.74797,9.16868 -11.93224,5.98442 z m -30.52329,-11.81004 -0.649432,-0.64943 V 95.689882 84.288747 l 0.649432,-0.649432 c 0.61144,-0.611447 0.82107,-0.649432 3.5839,-0.649432 2.76283,0 2.97246,0.03798 3.5839,0.649432 l 0.64943,0.649432 v 11.401135 11.401138 l -0.64943,0.64943 c -0.61144,0.61145 -0.82107,0.64943 -3.5839,0.64943 -2.76283,0 -2.97246,-0.038 -3.5839,-0.64943 z"
         style="fill:#424242;fill-opacity:1;stroke-width:0.26458332"
         inkscape:connector-curvature="0" />
      <path
         id="path4713"
         d="m 100.35955,209.34044 -0.649432,-0.64943 v -11.40113 -11.40114 l 0.649432,-0.64943 c 0.61144,-0.61145 0.82107,-0.64943 3.5839,-0.64943 2.76283,0 2.97246,0.038 3.5839,0.64943 l 0.64943,0.64943 v 11.35303 11.35303 l -0.69753,0.69754 c -0.66841,0.66841 -0.81808,0.69754 -3.58391,0.69754 -2.71175,0 -2.92564,-0.0393 -3.53579,-0.64944 z M 61.213245,193.33373 c -0.291042,-0.12641 -1.356651,-1.07115 -2.368021,-2.09941 -2.95931,-3.00876 -3.359137,-2.24972 6.226598,-11.82063 9.621845,-9.60696 8.747971,-9.16868 11.932237,-5.98442 3.183996,3.184 3.616139,2.31998 -5.935086,11.8664 -5.048718,5.04618 -8.247853,8.04914 -8.665103,8.13375 -0.363802,0.0738 -0.899584,0.0307 -1.190625,-0.0957 z m 83.872915,-0.006 c -0.29104,-0.12354 -4.07128,-3.78175 -8.40052,-8.12935 -9.39843,-9.43828 -8.98069,-8.59104 -5.8028,-11.76893 3.1814,-3.18139 2.3186,-3.61142 11.86013,5.91126 4.39758,4.3889 8.06579,8.25946 8.15157,8.60125 0.21849,0.87052 -0.36309,1.83428 -2.15029,3.56332 -2.07988,2.0122 -2.60029,2.27147 -3.65809,1.82245 z M 99.60025,175.83042 C 89.326522,174.332 80.276727,167.16175 76.426645,157.46974 c -1.571355,-3.95566 -1.961361,-6.13895 -1.961361,-10.97986 0,-3.58283 0.101753,-4.7721 0.56747,-6.63254 2.824912,-11.28489 10.993265,-19.45325 22.278154,-22.27816 1.860439,-0.46571 3.049722,-0.56747 6.632542,-0.56747 4.84091,0 7.0242,0.39001 10.97986,1.96136 15.98254,6.34895 23.24358,25.26823 15.5755,40.5834 -4.3502,8.68851 -12.17396,14.50814 -21.74916,16.17792 -2.40404,0.41923 -6.62936,0.46357 -9.1494,0.096 z m 4.3432,-29.34054 v -21.16667 l -0.7276,0.002 c -0.40019,0.001 -1.4952,0.12654 -2.43336,0.27876 -12.498982,2.02792 -20.54921,14.40534 -17.197892,26.44216 2.1756,7.81404 8.627022,13.75673 16.522392,15.21952 1.01865,0.18872 2.29857,0.35388 2.84427,0.36702 l 0.99219,0.0238 z m -62.850564,3.5839 c -0.611446,-0.61144 -0.649432,-0.82107 -0.649432,-3.5839 0,-2.76283 0.03799,-2.97246 0.649432,-3.5839 l 0.649432,-0.64943 H 53.143453 64.54459 l 0.64943,0.64943 c 0.610148,0.61014 0.649433,0.82404 0.649433,3.53579 0,2.76583 -0.02913,2.9155 -0.697537,3.58391 l -0.69754,0.69753 H 53.095347 41.742318 Z m 101.599994,0 c -0.61144,-0.61144 -0.64943,-0.82107 -0.64943,-3.5839 0,-2.76283 0.038,-2.97246 0.64943,-3.5839 l 0.64943,-0.64943 h 11.40114 11.40113 l 0.64943,0.64943 c 0.61015,0.61014 0.64944,0.82404 0.64944,3.53579 0,2.76583 -0.0291,2.9155 -0.69754,3.58391 l -0.69754,0.69753 H 154.69534 143.34231 Z M 65.071822,113.56607 c -9.6466,-9.63168 -9.227168,-8.79916 -6.039256,-11.98707 3.187912,-3.187917 2.355398,-3.607349 11.987076,6.03925 9.606959,9.62185 9.168682,8.74797 5.984417,11.93224 -3.184266,3.18426 -2.310392,3.62254 -11.932237,-5.98442 z m 65.811018,5.98442 c -3.18426,-3.18427 -3.62254,-2.31039 5.98442,-11.93224 9.63168,-9.646599 8.79917,-9.227167 11.98708,-6.03925 3.18791,3.18791 3.60734,2.35539 -6.03926,11.98707 -9.62185,9.60696 -8.74797,9.16868 -11.93224,5.98442 z m -30.52329,-11.81004 -0.649432,-0.64943 V 95.689882 84.288747 l 0.649432,-0.649432 c 0.61144,-0.611447 0.82107,-0.649432 3.5839,-0.649432 2.76283,0 2.97246,0.03798 3.5839,0.649432 l 0.64943,0.649432 v 11.353029 11.353034 l -0.69753,0.69753 c -0.66841,0.66841 -0.81808,0.69754 -3.58391,0.69754 -2.71175,0 -2.92564,-0.0393 -3.53579,-0.64943 z"
         style="fill:#424242;fill-opacity:1;stroke-width:0.26458332"
         inkscape:connector-curvature="0" />
      <path
         id="path4711"
         d="m 100.35955,209.34044 -0.649432,-0.64943 v -11.35303 -11.35303 l 0.697532,-0.69754 c 0.66689,-0.66688 0.82216,-0.69753 3.53325,-0.69753 2.6433,0 2.8832,0.044 3.53579,0.64882 l 0.70009,0.64883 v 11.35363 11.35364 l -0.69753,0.69754 c -0.66841,0.66841 -0.81808,0.69754 -3.58391,0.69754 -2.71175,0 -2.92564,-0.0393 -3.53579,-0.64944 z M 61.213245,193.20478 c -0.436563,-0.19573 -1.561703,-1.14005 -2.500313,-2.0985 -2.80326,-2.86251 -3.181559,-2.1669 6.35889,-11.69259 9.621845,-9.60696 8.747971,-9.16868 11.932237,-5.98442 3.184541,3.18455 3.616462,2.32177 -5.935086,11.85551 -4.402005,4.3938 -8.24177,8.05333 -8.532812,8.1323 -0.291041,0.079 -0.886354,-0.0166 -1.322916,-0.2123 z m 83.872915,0.12299 c -0.29104,-0.12366 -4.07128,-3.78197 -8.40052,-8.12958 -9.39843,-9.43827 -8.98069,-8.59103 -5.8028,-11.76892 3.17794,-3.17793 2.33079,-3.59565 11.76806,5.8028 4.34712,4.32924 8.01209,8.14493 8.14438,8.47932 0.1626,0.411 0.12398,0.88246 -0.11921,1.45521 -0.36658,0.86334 -3.60678,4.15453 -4.09016,4.15453 -0.14622,0 -0.42441,0.0521 -0.61822,0.11574 -0.1938,0.0637 -0.59049,0.0146 -0.88153,-0.1091 z M 99.180951,175.73231 c -3.088425,-0.52396 -5.577757,-1.36063 -8.66708,-2.91303 -8.416025,-4.2291 -14.282369,-12.24606 -15.797571,-21.589 -2.613528,-16.11536 8.371871,-31.3541 24.486749,-33.96755 6.209571,-1.00705 12.429731,-0.0405 18.082541,2.80987 11.45479,5.77592 17.94581,18.45171 15.90187,31.05348 -1.29371,7.97624 -5.95211,15.33087 -12.60165,19.89534 -5.93365,4.07306 -14.3048,5.91543 -21.404859,4.71089 z m 4.762499,-29.28042 v -21.20466 l -1.78594,0.16673 c -6.557207,0.6122 -12.340935,4.10483 -15.970248,9.644 -2.330807,3.55734 -3.266541,6.83214 -3.266541,11.43192 0,6.0725 1.967635,10.80255 6.264966,15.06053 3.534499,3.50215 9.091389,5.98086 13.633283,6.08127 l 1.12448,0.0249 z m -62.802458,3.57379 c -0.666962,-0.66697 -0.697538,-0.82196 -0.697538,-3.5358 0,-2.71384 0.03058,-2.86883 0.697538,-3.5358 l 0.697538,-0.69753 h 11.302368 11.302367 l 0.700095,0.64882 c 0.674653,0.62525 0.700093,0.75374 0.700093,3.5358 0,2.76648 -0.02911,2.91608 -0.697537,3.58451 l -0.69754,0.69753 H 53.143453 41.83853 Z m 101.551278,-0.003 c -0.6048,-0.6525 -0.64882,-0.8924 -0.64882,-3.53571 0,-2.71108 0.0306,-2.86635 0.69754,-3.53324 l 0.69754,-0.69753 h 11.35303 11.35302 l 0.64943,0.64943 c 0.61015,0.61014 0.64944,0.82404 0.64944,3.53579 0,2.76583 -0.0291,2.9155 -0.69754,3.58391 l -0.69754,0.69753 H 154.69474 143.3411 l -0.64883,-0.70009 z M 65.071822,113.56607 c -9.6466,-9.63168 -9.227168,-8.79916 -6.039256,-11.98707 3.187912,-3.187917 2.355398,-3.607349 11.987076,6.03925 9.606959,9.62185 9.168682,8.74797 5.984417,11.93224 -3.184266,3.18426 -2.310392,3.62254 -11.932237,-5.98442 z m 65.811018,5.98442 c -3.18426,-3.18427 -3.62254,-2.31039 5.98442,-11.93224 9.52569,-9.540451 8.82992,-9.162075 11.69296,-6.35889 1.96095,1.91996 2.60471,3.07467 2.23506,4.00901 -0.13229,0.33438 -3.79726,4.15008 -8.14438,8.47932 -9.43727,9.39845 -8.59012,8.98073 -11.76806,5.8028 z m -30.5239,-11.8607 -0.648822,-0.7001 V 95.687327 84.384959 l 0.697532,-0.697538 c 0.66697,-0.666962 0.82196,-0.697538 3.5358,-0.697538 2.71385,0 2.86884,0.03058 3.5358,0.697538 l 0.69753,0.697538 v 11.304923 11.304928 l -0.69753,0.69753 c -0.66843,0.66843 -0.81803,0.69754 -3.58451,0.69754 -2.78206,0 -2.91055,-0.0254 -3.5358,-0.70009 z"
         style="fill:#424242;fill-opacity:1;stroke-width:0.26458332"
         inkscape:connector-curvature="0" />
      <path
         id="path4709"
         d="m 100.90074,209.67031 c -1.180338,-0.67693 -1.173395,-0.60404 -1.182208,-12.4105 l -0.0084,-11.27486 0.697528,-0.69754 c 0.66,-0.65999 0.83894,-0.69753 3.32469,-0.69753 2.61682,0 3.47689,0.21692 4.1053,1.0354 0.43816,0.57069 0.48055,22.17726 0.0454,23.13235 -0.16157,0.3546 -0.5839,0.77692 -0.9385,0.93849 -0.84303,0.38411 -5.36267,0.36481 -6.04379,-0.0258 z M 61.32148,193.2635 c -0.792749,-0.28947 -3.586821,-2.99658 -4.102671,-3.97498 -0.21033,-0.39893 -0.312232,-1.00497 -0.22645,-1.34675 0.08578,-0.34178 3.75399,-4.21234 8.151575,-8.60124 9.541523,-9.52268 8.678727,-9.09265 11.860125,-5.91126 3.181265,3.18127 3.610618,2.31941 -5.905471,11.85433 -4.41439,4.42312 -8.234214,8.03954 -8.556869,8.10122 -0.320561,0.0613 -0.869668,0.007 -1.220239,-0.12132 z m 84.01141,0.12445 c -0.30086,-0.05 -4.14062,-3.69169 -8.53281,-8.09256 -9.5295,-9.54835 -9.09877,-8.68459 -5.91724,-11.86612 3.18127,-3.18126 2.31941,-3.61062 11.85433,5.90547 4.61877,4.60965 8.03841,8.22827 8.105,8.57662 0.18162,0.95009 -0.41632,1.98305 -2.08926,3.60926 -1.59412,1.5496 -2.46648,2.0259 -3.42002,1.86733 z M 99.180951,175.7164 c -6.48309,-1.02496 -13.23492,-4.7566 -17.434146,-9.6356 -2.030386,-2.35906 -2.912713,-3.67191 -4.226737,-6.28913 -6.423848,-12.79473 -2.829692,-28.32991 8.536124,-36.89606 9.057595,-6.8265 21.058958,-7.91513 31.189048,-2.82911 1.19699,0.60097 2.70024,1.45229 3.34057,1.89184 6.70624,4.60339 11.39425,12.05356 12.60614,20.03362 0.96425,6.34946 0.0133,12.14932 -2.94624,17.96918 -5.82528,11.45524 -18.28683,17.77543 -31.064759,15.75526 z m 4.762499,-29.26451 v -21.20466 l -1.78594,0.16673 c -6.569992,0.61339 -12.354334,4.09787 -15.952564,9.6098 -5.056414,7.74566 -4.401846,18.01343 1.598922,25.08114 2.372493,2.79433 5.445316,4.9763 8.66734,6.15456 2.076913,0.75952 4.747592,1.33685 6.347762,1.37222 l 1.12448,0.0249 z m -62.345333,3.96187 c -0.892829,-0.43232 -1.154663,-1.37674 -1.154663,-4.16483 0,-2.45351 0.03862,-2.63593 0.697538,-3.29485 l 0.697538,-0.69753 h 11.093814 c 7.926746,0 11.258799,0.0879 11.671732,0.3078 1.077888,0.57408 1.222219,1.03788 1.230963,3.9556 0.008,2.68665 -0.02177,2.83838 -0.689123,3.50573 l -0.69754,0.69753 -11.142565,-0.0179 c -7.096258,-0.0114 -11.347786,-0.11728 -11.707694,-0.29155 z m 101.480733,-0.0297 c -0.81848,-0.62841 -1.0354,-1.48848 -1.0354,-4.1053 0,-2.48575 0.0375,-2.66469 0.69754,-3.32469 l 0.69754,-0.69753 h 11.06397 c 7.54504,0 11.26902,0.0934 11.7087,0.29376 0.95543,0.43532 1.23225,1.32031 1.23225,3.93957 0,2.61926 -0.27682,3.50425 -1.23225,3.93957 -0.95509,0.43517 -22.56166,0.39278 -23.13235,-0.0454 z M 65.143934,113.63923 c -4.397585,-4.3889 -8.066148,-8.26088 -8.152364,-8.60439 -0.21301,-0.8487 0.183393,-1.53352 1.936659,-3.34576 1.729046,-1.787204 2.692799,-2.368781 3.56333,-2.150292 0.341782,0.08578 4.21234,3.753992 8.60124,8.151572 9.522685,9.54153 9.092655,8.67873 5.91126,11.86013 -3.181398,3.18139 -2.318602,3.61142 -11.860125,-5.91126 z m 65.738906,5.91126 c -3.18139,-3.1814 -3.61142,-2.3186 5.91126,-11.86013 4.3889,-4.39758 8.25946,-8.06579 8.60124,-8.151572 0.86737,-0.217695 1.82741,0.358859 3.58053,2.150292 1.59611,1.631 2.04419,2.44873 1.86252,3.39907 -0.0617,0.32265 -3.6781,4.14248 -8.10122,8.55687 -9.53492,9.51609 -8.67306,9.08673 -11.85433,5.90547 z m -30.13732,-11.49975 c -0.99749,-0.76585 -1.035402,-1.22619 -1.035402,-12.571967 V 84.384959 l 0.697532,-0.697538 c 0.65893,-0.658919 0.84134,-0.697538 3.29485,-0.697538 2.85463,0 3.73767,0.260285 4.18053,1.23225 0.20032,0.439673 0.29375,4.163663 0.29375,11.708702 v 11.063975 l -0.69753,0.69753 c -0.66735,0.66735 -0.81908,0.69718 -3.50573,0.68913 -1.78909,-0.005 -2.96054,-0.12539 -3.228,-0.33073 z"
         style="fill:#424242;fill-opacity:1;stroke-width:0.26458332"
         inkscape:connector-curvature="0" />
      <path
         id="path4707"
         d="m 100.86478,209.68042 c -0.31082,-0.1505 -0.69777,-0.56476 -0.8599,-0.92058 -0.410377,-0.90069 -0.411306,-22.0372 -0.001,-22.93771 0.43537,-0.95544 1.32037,-1.23225 3.93962,-1.23225 2.61926,0 3.50425,0.27681 3.93958,1.23225 0.19999,0.43894 0.29375,4.0993 0.29375,11.46775 0,7.36845 -0.0938,11.0288 -0.29375,11.46775 -0.16157,0.3546 -0.5839,0.77692 -0.9385,0.93849 -0.80344,0.36607 -5.31537,0.35442 -6.07975,-0.0157 z M 61.169442,193.1766 c -0.93278,-0.40694 -3.685487,-3.20449 -3.999606,-4.06475 -0.128009,-0.35057 -0.182607,-0.89968 -0.121327,-1.22024 0.06168,-0.32265 3.678099,-4.14248 8.101222,-8.55687 9.534916,-9.51609 8.67306,-9.08673 11.854328,-5.90547 3.181265,3.18127 3.610618,2.31941 -5.905471,11.85433 -4.60965,4.61877 -8.228271,8.03841 -8.576615,8.105 -0.331422,0.0634 -0.940061,-0.032 -1.352531,-0.212 z m 84.163448,0.20912 c -0.30086,-0.0488 -4.14062,-3.68946 -8.53281,-8.09033 -9.5295,-9.54835 -9.09877,-8.68459 -5.91724,-11.86612 3.1818,-3.18179 2.31608,-3.61394 11.87819,5.92929 7.74967,7.73437 8.01367,8.03157 8.01367,9.02156 0,0.90252 -0.20688,1.23799 -1.74756,2.83386 -1.74081,1.80317 -2.65464,2.34039 -3.69425,2.17174 z m -44.29986,-17.40165 c -0.21828,-0.0428 -1.289839,-0.22292 -2.381245,-0.40034 -8.99646,-1.46246 -17.019259,-7.5227 -21.177477,-15.99698 -4.118305,-8.39293 -4.210552,-17.42264 -0.262694,-25.71392 3.029127,-6.36177 7.381795,-10.78375 13.634963,-13.85209 8.611115,-4.22537 17.582633,-4.22537 26.193753,0 18.18527,8.92328 22.15362,33.01629 7.80194,47.36796 -4.64192,4.64192 -10.44611,7.52005 -17.06236,8.46071 -1.69267,0.24065 -5.78862,0.32241 -6.74688,0.13466 z m 2.91042,-29.49419 v -21.16667 l -0.99219,0.003 c -1.69714,0.006 -5.673041,0.95086 -7.510776,1.78501 -8.162401,3.70494 -13.097107,11.78011 -12.569512,20.5688 0.250145,4.16692 1.31708,7.33918 3.598142,10.6982 3.608882,5.31431 10.333395,9.11996 16.349856,9.25298 l 1.12448,0.0249 z m -62.345333,3.92388 c -0.87702,-0.42466 -1.154663,-1.36817 -1.154663,-3.92388 0,-2.61926 0.276815,-3.50425 1.232251,-3.93957 0.898635,-0.40945 22.036863,-0.40945 22.935499,0 0.955434,0.43532 1.232249,1.32031 1.232249,3.93957 0,2.61926 -0.276815,3.50425 -1.232249,3.93957 -0.858748,0.39128 -22.202671,0.37672 -23.013087,-0.0157 z m 101.599993,0 c -0.87702,-0.42466 -1.15466,-1.36817 -1.15466,-3.92388 0,-2.61926 0.27681,-3.50425 1.23225,-3.93957 0.89863,-0.40945 22.03686,-0.40945 22.9355,0 0.95543,0.43532 1.23225,1.32031 1.23225,3.93957 0,2.61926 -0.27682,3.50425 -1.23225,3.93957 -0.85875,0.39128 -22.20267,0.37672 -23.01309,-0.0157 z M 65.236004,113.74769 c -4.347124,-4.32924 -8.009932,-8.13924 -8.139574,-8.46666 -0.356443,-0.90023 0.131232,-1.8671 1.816277,-3.60097 1.726285,-1.776308 2.895949,-2.403327 3.809237,-2.042013 0.334383,0.132288 4.150077,3.797263 8.479321,8.144383 9.398449,9.43727 8.980728,8.59012 5.802794,11.76806 -3.177934,3.17793 -2.330791,3.59565 -11.768055,-5.8028 z m 65.646836,5.8028 c -3.18126,-3.18127 -3.61061,-2.31941 5.90547,-11.85433 4.60965,-4.61877 8.22828,-8.038407 8.57662,-8.104997 0.98537,-0.188366 2.00556,0.425057 3.75612,2.258487 1.44352,1.51185 1.65365,1.86166 1.65365,2.75282 0,0.98628 -0.27163,1.29198 -8.01367,9.01873 -9.56211,9.54323 -8.69639,9.11108 -11.87819,5.92929 z m -30.01806,-11.47006 c -0.31082,-0.1505 -0.69777,-0.56477 -0.8599,-0.92059 -0.410377,-0.90069 -0.411306,-22.037191 -0.001,-22.937707 0.43532,-0.955435 1.32032,-1.23225 3.93957,-1.23225 2.61926,0 3.50425,0.276815 3.93958,1.23225 0.19999,0.438942 0.29375,4.099299 0.29375,11.467749 0,7.368448 -0.0938,11.028808 -0.29375,11.467748 -0.16157,0.3546 -0.5839,0.77692 -0.9385,0.93849 -0.80344,0.36607 -5.31537,0.35443 -6.07975,-0.0157 z"
         style="fill:#424242;fill-opacity:1;stroke-width:0.26458332"
         inkscape:connector-curvature="0" />
      <path
         id="path4705"
         d="m 100.86478,209.68042 c -0.31082,-0.1505 -0.69777,-0.56476 -0.8599,-0.92058 -0.410377,-0.90069 -0.411306,-22.0372 -0.001,-22.93771 0.43537,-0.95544 1.32037,-1.23225 3.93962,-1.23225 2.61926,0 3.50425,0.27681 3.93958,1.23225 0.19999,0.43894 0.29375,4.0993 0.29375,11.46775 0,7.36845 -0.0938,11.0288 -0.29375,11.46775 -0.16157,0.3546 -0.5839,0.77692 -0.9385,0.93849 -0.80344,0.36607 -5.31537,0.35442 -6.07975,-0.0157 z M 59.049636,191.3837 c -1.75276,-1.75277 -1.937433,-2.03704 -1.937433,-2.98237 0,-1.01781 0.207982,-1.2525 8.013668,-9.04277 9.56211,-9.54323 8.696388,-9.11108 11.878188,-5.92929 3.181797,3.1818 3.613943,2.31608 -5.929286,11.87819 -7.790275,7.80569 -8.024963,8.01367 -9.042774,8.01367 -0.94533,0 -1.229603,-0.18468 -2.982363,-1.93743 z m 77.762494,-6.07624 c -9.54323,-9.56211 -9.11108,-8.69639 -5.92929,-11.87819 3.1818,-3.18179 2.31608,-3.61394 11.87819,5.92929 7.80569,7.79027 8.01367,8.02496 8.01367,9.04277 0,0.94533 -0.18468,1.2296 -1.93743,2.98237 -1.75277,1.75275 -2.03704,1.93743 -2.98237,1.93743 -1.01781,0 -1.2525,-0.20798 -9.04277,-8.01367 z m -36.04368,-9.33705 c -0.3638,-0.0649 -1.375832,-0.24181 -2.248957,-0.3932 -5.599438,-0.97087 -11.244079,-3.95772 -15.474865,-8.18851 -4.198601,-4.1986 -6.927444,-9.31886 -8.247324,-15.47486 -0.438361,-2.04455 -0.440377,-8.78948 -0.0032,-10.84792 2.611874,-12.29912 11.426309,-21.11355 23.72543,-23.72543 2.058446,-0.43713 8.803366,-0.43512 10.847916,0.003 6.156,1.31988 11.27627,4.04872 15.47487,8.24732 4.1979,4.19791 6.92052,9.30562 8.24873,15.47487 0.43704,2.02994 0.43274,8.76346 -0.007,10.84791 -2.5362,12.02409 -11.38546,21.02184 -23.1875,23.57661 -1.82251,0.39452 -7.83455,0.71064 -9.12812,0.47997 z m 3.175,-29.51852 v -21.20466 l -1.90679,0.17721 c -7.417366,0.68938 -13.919234,5.20978 -17.140298,11.91675 -1.597376,3.3261 -1.9623,5.02746 -1.9623,9.14869 0,3.9064 0.344344,5.66299 1.693349,8.63815 3.272779,7.21796 10.558528,12.21977 18.191559,12.48887 l 1.12448,0.0397 z m -62.345333,3.96187 c -0.87702,-0.42466 -1.154663,-1.36817 -1.154663,-3.92388 0,-2.61926 0.276815,-3.50425 1.232251,-3.93957 0.898635,-0.40945 22.036863,-0.40945 22.935499,0 0.955434,0.43532 1.232249,1.32031 1.232249,3.93957 0,2.61926 -0.276815,3.50425 -1.232249,3.93957 -0.858748,0.39128 -22.202671,0.37672 -23.013087,-0.0157 z m 101.599993,0 c -0.87702,-0.42466 -1.15466,-1.36817 -1.15466,-3.92388 0,-2.61926 0.27681,-3.50425 1.23225,-3.93957 0.89863,-0.40945 22.03686,-0.40945 22.9355,0 0.95543,0.43532 1.23225,1.32031 1.23225,3.93957 0,2.61926 -0.27682,3.50425 -1.23225,3.93957 -0.85875,0.39128 -22.20267,0.37672 -23.01309,-0.0157 z M 65.149731,113.64502 c -4.423123,-4.41439 -8.039542,-8.23422 -8.101222,-8.55687 -0.181414,-0.94901 0.265423,-1.76655 1.862528,-3.40773 1.628273,-1.6732 2.661153,-2.27082 3.610936,-2.089257 0.348344,0.06659 3.966965,3.486227 8.576615,8.104997 9.516089,9.53492 9.086736,8.67306 5.905471,11.85433 -3.181268,3.18126 -2.319412,3.61062 -11.854328,-5.90547 z m 65.733109,5.90547 c -3.18179,-3.1818 -3.61394,-2.31608 5.92929,-11.87819 7.79027,-7.805687 8.02496,-8.013668 9.04277,-8.013668 0.94533,0 1.2296,0.184673 2.98237,1.937428 1.75275,1.75276 1.93743,2.03704 1.93743,2.98237 0,1.01781 -0.20798,1.2525 -8.01367,9.04277 -9.56211,9.54323 -8.69639,9.11108 -11.87819,5.92929 z m -30.01806,-11.47006 c -0.31082,-0.1505 -0.69777,-0.56477 -0.8599,-0.92059 -0.410377,-0.90069 -0.411306,-22.037191 -0.001,-22.937707 0.43532,-0.955435 1.32032,-1.23225 3.93957,-1.23225 2.61926,0 3.50425,0.276815 3.93958,1.23225 0.19999,0.438942 0.29375,4.099299 0.29375,11.467749 0,7.368448 -0.0938,11.028808 -0.29375,11.467748 -0.16157,0.3546 -0.5839,0.77692 -0.9385,0.93849 -0.80344,0.36607 -5.31537,0.35443 -6.07975,-0.0157 z"
         style="fill:#424242;fill-opacity:1;stroke-width:0.26458332"
         inkscape:connector-curvature="0" />
      <path
         id="path4703"
         d="m 100.86478,209.68042 c -0.31082,-0.1505 -0.69777,-0.56476 -0.8599,-0.92058 -0.410377,-0.90069 -0.411306,-22.0372 -0.001,-22.93771 0.44059,-0.96699 1.32419,-1.23225 4.10467,-1.23225 2.43408,0 2.54823,0.0268 3.29484,0.7734 l 0.77344,0.77339 v 11.15321 11.1532 l -0.77339,0.7734 c -0.75301,0.753 -0.84196,0.77293 -3.37344,0.75549 -1.43002,-0.01 -2.85435,-0.14104 -3.16517,-0.29155 z M 59.049636,191.3837 c -1.75276,-1.75277 -1.937433,-2.03704 -1.937433,-2.98237 0,-1.01781 0.207982,-1.2525 8.013668,-9.04277 9.507847,-9.48907 8.689985,-9.0655 11.738827,-6.07962 1.56937,1.53696 1.991068,2.12 2.121643,2.93338 l 0.162967,1.01515 -8.04683,8.04683 c -7.808087,7.80809 -8.077517,8.04683 -9.08112,8.04683 -0.93211,0 -1.225691,-0.1914 -2.971722,-1.93743 z m 77.773134,-6.07106 c -9.55945,-9.55944 -9.12767,-8.69563 -5.93993,-11.88337 3.18775,-3.18774 2.32393,-3.61952 11.88337,5.93993 7.77004,7.77004 8.00849,8.03928 8.00849,9.04277 0,0.93211 -0.1914,1.22569 -1.93743,2.97173 -1.74603,1.74603 -2.03962,1.93743 -2.97173,1.93743 -1.00349,0 -1.27273,-0.23845 -9.04277,-8.00849 z m -36.859927,-9.48033 c -2.512526,-0.32495 -6.144932,-1.42449 -8.67047,-2.62458 -18.466762,-8.77505 -22.692565,-33.17185 -8.247745,-47.61667 11.570695,-11.5707 30.220872,-11.56895 41.793732,0.004 7.5759,7.5759 10.488,18.74437 7.55234,28.9647 -4.06,14.1347 -17.82086,23.16181 -32.427857,21.27265 z m 3.980607,-29.38081 v -21.20503 l -1.80559,0.15137 c -7.355641,0.61667 -14.020376,5.23356 -17.240889,11.94335 -1.375045,2.86485 -1.854433,4.77165 -2.037035,8.10249 -0.487315,8.88903 4.582266,16.97115 12.880112,20.53397 2.211509,0.94955 5.041062,1.62462 6.946632,1.65732 l 1.25677,0.0216 z m -62.726598,3.49831 c -0.746601,-0.7466 -0.773398,-0.86075 -0.773398,-3.29484 0,-2.78047 0.265266,-3.66407 1.232251,-4.10466 0.439446,-0.20023 4.143398,-0.29376 11.632842,-0.29376 h 10.988112 l 0.773396,0.77339 c 0.75325,0.75326 0.773398,0.84339 0.773398,3.45994 0,2.61655 -0.02013,2.70668 -0.773398,3.45993 l -0.773396,0.7734 H 53.143453 41.990249 Z m 101.599998,0 c -0.7466,-0.7466 -0.7734,-0.86075 -0.7734,-3.29484 0,-2.78047 0.26527,-3.66407 1.23225,-4.10466 0.89863,-0.40945 22.03686,-0.40945 22.9355,0 0.96698,0.44059 1.23225,1.32419 1.23225,4.10466 0,2.43409 -0.0268,2.54824 -0.7734,3.29484 l -0.7734,0.7734 h -11.1532 -11.15321 z M 65.120688,113.61056 c -7.77004,-7.77004 -8.008485,-8.03928 -8.008485,-9.04277 0,-0.93211 0.191402,-1.22569 1.937433,-2.97173 1.742598,-1.742593 2.040907,-1.937428 2.966377,-1.937428 0.995647,0 1.284307,0.254722 8.920084,7.871358 4.340127,4.32924 7.957103,8.13065 8.037721,8.44757 0.238797,0.93872 -0.152278,1.69785 -1.723199,3.34499 -1.590789,1.66797 -2.553586,2.2965 -3.517834,2.2965 -0.438743,0 -2.791023,-2.18741 -8.612097,-8.00849 z m 67.794632,7.75678 c -0.29104,-0.11998 -1.33283,-1.05336 -2.3151,-2.07416 -2.81891,-2.92952 -3.23021,-2.16008 6.21191,-11.62088 7.79027,-7.805687 8.02496,-8.013668 9.04277,-8.013668 0.94533,0 1.2296,0.184673 2.98237,1.937428 1.74603,1.74604 1.93743,2.03962 1.93743,2.97173 0,1.00349 -0.23845,1.27273 -8.00849,9.04277 -8.30012,8.30013 -8.38014,8.36314 -9.85089,7.75678 z m -32.4318,-13.75086 -0.773402,-0.77339 V 95.854976 c 0,-7.489444 0.09354,-11.193397 0.293762,-11.632843 0.44059,-0.966984 1.32419,-1.23225 4.10467,-1.23225 2.43408,0 2.54823,0.0268 3.29484,0.773397 l 0.77339,0.773398 v 11.153204 11.153208 l -0.77339,0.77339 c -0.75325,0.75325 -0.84338,0.7734 -3.45994,0.7734 -2.61655,0 -2.70668,-0.0202 -3.45993,-0.7734 z"
         style="fill:#424242;fill-opacity:1;stroke-width:0.26458332"
         inkscape:connector-curvature="0" />
      <path
         id="path4701"
         d="m 100.48352,209.21648 -0.773402,-0.7734 v -11.1532 -11.15321 l 0.773402,-0.77339 c 0.75325,-0.75325 0.84338,-0.7734 3.45993,-0.7734 2.61656,0 2.70669,0.0201 3.45994,0.7734 l 0.77339,0.77339 v 11.15321 11.1532 l -0.77339,0.7734 c -0.75325,0.75325 -0.84338,0.7734 -3.45994,0.7734 -2.61655,0 -2.70668,-0.0201 -3.45993,-0.7734 z M 59.049636,191.3837 c -1.742598,-1.7426 -1.937433,-2.04091 -1.937433,-2.96638 0,-0.99565 0.254722,-1.28431 7.871354,-8.92009 4.329245,-4.34012 8.141557,-7.95983 8.471802,-8.0438 0.961239,-0.24439 2.028219,0.36815 3.732114,2.14258 1.593239,1.65919 2.067613,2.59382 1.778638,3.5043 -0.08486,0.26737 -3.701833,4.02643 -8.037721,8.35347 -7.628863,7.6133 -7.916659,7.86735 -8.912377,7.86735 -0.92547,0 -1.223779,-0.19484 -2.966377,-1.93743 z m 77.773134,-6.07106 c -9.50528,-9.50527 -9.08204,-8.68914 -6.09026,-11.74401 1.53696,-1.56937 2.12,-1.99107 2.93338,-2.12164 l 1.01515,-0.16297 8.04683,8.04683 c 7.80809,7.80809 8.04683,8.07752 8.04683,9.08112 0,0.93211 -0.1914,1.22569 -1.93743,2.97173 -1.74603,1.74603 -2.03962,1.93743 -2.97173,1.93743 -1.00349,0 -1.27273,-0.23845 -9.04277,-8.00849 z m -37.43401,-9.5997 c -11.325359,-1.76347 -20.651331,-10.00975 -23.866032,-21.10301 -3.997298,-13.79384 2.721986,-28.6379 15.769645,-34.8379 11.243047,-5.34248 24.719887,-3.00316 33.545987,5.82294 7.58252,7.58252 10.47631,18.72705 7.53441,29.01641 -4.08976,14.30402 -18.29113,23.38937 -32.98401,21.10156 z m 4.55469,-29.26144 v -21.20503 l -1.80559,0.15137 c -7.353265,0.61647 -14.157872,5.33139 -17.266424,11.96392 -1.356831,2.89498 -1.831753,4.80315 -2.0115,8.08192 -0.488797,8.91606 4.557032,16.96032 12.880112,20.53397 2.211509,0.94955 5.041062,1.62462 6.946632,1.65732 l 1.25677,0.0216 z m -62.726598,3.49831 c -0.753251,-0.75325 -0.773398,-0.84338 -0.773398,-3.45993 0,-2.61655 0.02015,-2.70668 0.773398,-3.45994 l 0.773397,-0.77339 h 11.153204 11.153206 l 0.773396,0.77339 c 0.75325,0.75326 0.773398,0.84339 0.773398,3.45994 0,2.61655 -0.02013,2.70668 -0.773398,3.45993 l -0.773396,0.7734 H 53.143453 41.990249 Z m 101.599998,0 c -0.75325,-0.75325 -0.7734,-0.84338 -0.7734,-3.45993 0,-2.61655 0.0201,-2.70668 0.7734,-3.45994 l 0.77339,-0.77339 h 11.15321 11.1532 l 0.7734,0.77339 c 0.75325,0.75326 0.7734,0.84339 0.7734,3.45994 0,2.61655 -0.0201,2.70668 -0.7734,3.45993 l -0.7734,0.7734 h -11.1532 -11.15321 z M 65.120688,113.61056 c -7.77004,-7.77004 -8.008485,-8.03928 -8.008485,-9.04277 0,-0.93211 0.191402,-1.22569 1.937433,-2.97173 1.742598,-1.742593 2.040907,-1.937428 2.966377,-1.937428 0.995647,0 1.284307,0.254722 8.920084,7.871358 4.340127,4.32924 7.957103,8.13065 8.037721,8.44757 0.238797,0.93872 -0.152278,1.69785 -1.723199,3.34499 -1.590789,1.66797 -2.553586,2.2965 -3.517834,2.2965 -0.438743,0 -2.791023,-2.18741 -8.612097,-8.00849 z m 67.530052,7.52111 c -0.43656,-0.26697 -1.47836,-1.22581 -2.3151,-2.13076 -2.46572,-2.66669 -2.84817,-1.99849 6.48713,-11.33379 7.77004,-7.770043 8.03928,-8.008488 9.04277,-8.008488 0.93211,0 1.2257,0.191402 2.97173,1.937428 1.74603,1.74604 1.93743,2.03962 1.93743,2.97173 0,1.00349 -0.23845,1.27273 -8.00849,9.04277 -8.56878,8.56878 -8.49363,8.51291 -10.11547,7.52111 z m -32.16722,-13.51519 -0.773402,-0.77339 V 95.689882 84.536678 l 0.773402,-0.773398 c 0.75325,-0.75325 0.84338,-0.773397 3.45993,-0.773397 2.61656,0 2.70669,0.02015 3.45994,0.773397 l 0.77339,0.773398 v 11.153204 11.153208 l -0.77339,0.77339 c -0.75325,0.75325 -0.84338,0.7734 -3.45994,0.7734 -2.61655,0 -2.70668,-0.0202 -3.45993,-0.7734 z"
         style="fill:#424242;fill-opacity:1;stroke-width:0.26458332"
         inkscape:connector-curvature="0" />
      <path
         id="path4699"
         d="m 100.48352,209.21648 -0.773402,-0.7734 v -11.1532 -11.15321 l 0.773402,-0.77339 c 0.75325,-0.75325 0.84338,-0.7734 3.45993,-0.7734 2.61656,0 2.70669,0.0201 3.45994,0.7734 l 0.77339,0.77339 v 11.15321 11.1532 l -0.77339,0.7734 c -0.75325,0.75325 -0.84338,0.7734 -3.45994,0.7734 -2.61655,0 -2.70668,-0.0201 -3.45993,-0.7734 z M 59.049636,191.3837 c -1.742598,-1.7426 -1.937433,-2.04091 -1.937433,-2.96638 0,-0.99565 0.254722,-1.28431 7.871354,-8.92009 4.329245,-4.34012 8.141557,-7.95983 8.471802,-8.0438 0.961239,-0.24439 2.028219,0.36815 3.732114,2.14258 1.593239,1.65919 2.067613,2.59382 1.778638,3.5043 -0.08486,0.26737 -3.701833,4.02643 -8.037721,8.35347 -7.628863,7.6133 -7.916659,7.86735 -8.912377,7.86735 -0.92547,0 -1.223779,-0.19484 -2.966377,-1.93743 z m 77.908874,-5.92992 c -4.33589,-4.32704 -7.95286,-8.0861 -8.03772,-8.35347 -0.28897,-0.91048 0.1854,-1.84511 1.77864,-3.5043 1.70389,-1.77443 2.77087,-2.38697 3.73211,-2.14258 0.33025,0.084 4.14256,3.70368 8.4718,8.0438 7.61664,7.63578 7.87136,7.92444 7.87136,8.92009 0,0.92547 -0.19484,1.22378 -1.93743,2.96638 -1.7426,1.74259 -2.04091,1.93743 -2.96638,1.93743 -0.99572,0 -1.28351,-0.25405 -8.91238,-7.86735 z m -36.85152,-9.62885 c -9.737079,-1.21626 -18.692311,-7.75349 -22.888825,-16.70862 -6.929808,-14.78782 -0.596352,-32.46531 14.098851,-39.35172 16.526894,-7.74476 35.962854,1.06039 41.043994,18.59431 5.882,20.29757 -11.16578,40.10016 -32.25402,37.46603 z m 3.83646,-29.37388 v -21.20548 l -1.91823,0.16577 c -8.660956,0.74847 -16.056343,6.90516 -18.504365,15.40497 -0.862947,2.99624 -0.868151,8.33367 -0.01103,11.30694 2.506613,8.6952 10.620158,15.25195 19.176845,15.49726 l 1.25678,0.036 z m -62.726598,3.49876 c -0.753251,-0.75325 -0.773398,-0.84338 -0.773398,-3.45993 0,-2.61655 0.02015,-2.70668 0.773398,-3.45994 l 0.773397,-0.77339 h 11.153204 11.153206 l 0.773396,0.77339 c 0.75325,0.75326 0.773398,0.84339 0.773398,3.45994 0,2.61655 -0.02013,2.70668 -0.773398,3.45993 l -0.773396,0.7734 H 53.143453 41.990249 Z m 101.599998,0 c -0.75325,-0.75325 -0.7734,-0.84338 -0.7734,-3.45993 0,-2.61655 0.0201,-2.70668 0.7734,-3.45994 l 0.77339,-0.77339 h 11.15321 11.1532 l 0.7734,0.77339 c 0.75325,0.75326 0.7734,0.84339 0.7734,3.45994 0,2.61655 -0.0201,2.70668 -0.7734,3.45993 l -0.7734,0.7734 h -11.1532 -11.15321 z M 65.120688,113.61056 c -7.77004,-7.77004 -8.008485,-8.03928 -8.008485,-9.04277 0,-0.93211 0.191402,-1.22569 1.937433,-2.97173 1.742598,-1.742593 2.040907,-1.937428 2.966377,-1.937428 0.995647,0 1.284307,0.254722 8.920084,7.871358 4.340127,4.32924 7.957103,8.13065 8.037721,8.44757 0.238797,0.93872 -0.152278,1.69785 -1.723199,3.34499 -1.590789,1.66797 -2.553586,2.2965 -3.517834,2.2965 -0.438743,0 -2.791023,-2.18741 -8.612097,-8.00849 z m 67.530052,7.51665 c -1.16306,-0.71778 -3.52068,-3.31313 -3.71578,-4.09046 -0.0926,-0.36915 -0.099,-0.88993 -0.0142,-1.1573 0.0849,-0.26737 3.70183,-4.02643 8.03772,-8.35347 7.62886,-7.613299 7.91665,-7.867348 8.91237,-7.867348 0.92547,0 1.22378,0.194835 2.96638,1.937428 1.74603,1.74604 1.93743,2.03962 1.93743,2.97173 0,1.00349 -0.23845,1.27273 -8.00849,9.04277 -8.5712,8.57121 -8.49657,8.51575 -10.11547,7.51665 z m -32.16722,-13.51073 -0.773402,-0.77339 V 95.689882 84.536678 l 0.773402,-0.773398 c 0.75325,-0.75325 0.84338,-0.773397 3.45993,-0.773397 2.61656,0 2.70669,0.02015 3.45994,0.773397 l 0.77339,0.773398 v 11.153204 11.153208 l -0.77339,0.77339 c -0.75325,0.75325 -0.84338,0.7734 -3.45994,0.7734 -2.61655,0 -2.70668,-0.0202 -3.45993,-0.7734 z"
         style="fill:#424242;fill-opacity:1;stroke-width:0.26458332"
         inkscape:connector-curvature="0" />
      <path
         id="path4697"
         d="m 100.48352,209.21648 -0.773402,-0.7734 v -11.1532 -11.15321 l 0.773402,-0.77339 c 0.75325,-0.75325 0.84338,-0.7734 3.45993,-0.7734 2.61656,0 2.70669,0.0201 3.45994,0.7734 l 0.77339,0.77339 v 11.15321 11.1532 l -0.77339,0.7734 c -0.75325,0.75325 -0.84338,0.7734 -3.45994,0.7734 -2.61655,0 -2.70668,-0.0201 -3.45993,-0.7734 z M 59.049636,191.3837 c -1.742598,-1.7426 -1.937433,-2.04091 -1.937433,-2.96638 0,-0.99569 0.253933,-1.2834 7.855506,-8.90051 5.30281,-5.31365 8.090817,-7.92325 8.579646,-8.03061 0.97455,-0.21405 1.932781,0.33166 3.576719,2.03694 1.655045,1.7168 2.032076,2.41118 1.823892,3.35904 -0.108448,0.49376 -2.692225,3.25512 -8.031445,8.58344 -7.617113,7.60158 -7.904824,7.85551 -8.900508,7.85551 -0.92547,0 -1.223779,-0.19484 -2.966377,-1.93743 z m 77.920744,-5.91808 c -5.33922,-5.32832 -7.923,-8.08968 -8.03144,-8.58344 -0.20819,-0.94786 0.16884,-1.64224 1.82389,-3.35904 1.64394,-1.70528 2.60217,-2.25099 3.57672,-2.03694 0.48883,0.10736 3.27683,2.71696 8.57964,8.03061 7.60158,7.61711 7.85551,7.90482 7.85551,8.90051 0,0.92547 -0.19484,1.22378 -1.93743,2.96638 -1.7426,1.74259 -2.04091,1.93743 -2.96638,1.93743 -0.99568,0 -1.2834,-0.25393 -8.90051,-7.85551 z m -36.86339,-9.64069 c -9.783219,-1.22202 -18.814427,-7.87762 -23.009274,-16.95682 -6.770264,-14.65335 -0.364538,-32.2693 14.2193,-39.10352 16.520884,-7.74194 35.968124,1.07855 41.051204,18.61921 5.87153,20.26143 -11.19836,40.07209 -32.26123,37.44113 z m 3.83646,-29.37324 v -21.20486 l -1.91823,0.15607 c -2.712863,0.22071 -4.732293,0.80358 -7.474477,2.15734 -4.336613,2.1409 -7.393561,5.19743 -9.538213,9.53693 -1.731272,3.50307 -2.103453,5.16499 -2.103453,9.39271 0,5.25258 1.096965,8.61919 4.153249,12.74641 3.62199,4.89116 9.934106,8.28283 15.624354,8.39539 l 1.25677,0.0249 z m -62.726598,3.49812 c -0.753251,-0.75325 -0.773398,-0.84338 -0.773398,-3.45993 0,-2.61655 0.02015,-2.70668 0.773398,-3.45994 l 0.773397,-0.77339 h 11.153204 11.153206 l 0.773396,0.77339 c 0.75325,0.75326 0.773398,0.84339 0.773398,3.45994 0,2.61655 -0.02013,2.70668 -0.773398,3.45993 l -0.773396,0.7734 H 53.143453 41.990249 Z m 101.599998,0 c -0.75325,-0.75325 -0.7734,-0.84338 -0.7734,-3.45993 0,-2.61655 0.0201,-2.70668 0.7734,-3.45994 l 0.77339,-0.77339 h 11.15321 11.1532 l 0.7734,0.77339 c 0.75325,0.75326 0.7734,0.84339 0.7734,3.45994 0,2.61655 -0.0201,2.70668 -0.7734,3.45993 l -0.7734,0.7734 h -11.1532 -11.15321 z M 73.119494,121.36092 c -0.291041,-0.12352 -4.011744,-3.72227 -8.268229,-7.99723 -7.482801,-7.51527 -7.739062,-7.80671 -7.739062,-8.80142 0,-0.92526 0.194943,-1.22372 1.937433,-2.96621 1.742598,-1.742593 2.040907,-1.937428 2.966377,-1.937428 0.995684,0 1.283395,0.253932 8.900508,7.855508 5.313653,5.30281 7.923246,8.09082 8.030611,8.57964 0.214048,0.97455 -0.331663,1.93278 -2.036942,3.57672 -1.977149,1.90603 -2.613771,2.18992 -3.790696,1.69042 z m 59.531246,-0.22245 c -1.17796,-0.74368 -3.52254,-3.33178 -3.71578,-4.10172 -0.0926,-0.36915 -0.099,-0.88993 -0.0142,-1.1573 0.0849,-0.26737 3.70183,-4.02643 8.03772,-8.35347 7.62886,-7.613299 7.91665,-7.867348 8.91237,-7.867348 0.92547,0 1.22378,0.194835 2.96638,1.937428 1.74334,1.74335 1.93743,2.04063 1.93743,2.96753 0,0.99747 -0.24932,1.27961 -7.87136,8.90735 -8.4735,8.47986 -8.6989,8.64842 -10.2526,7.66753 z m -32.16722,-13.52199 -0.773402,-0.77339 V 95.689882 84.536678 l 0.773402,-0.773398 c 0.75325,-0.75325 0.84338,-0.773397 3.45993,-0.773397 2.61656,0 2.70669,0.02015 3.45994,0.773397 l 0.77339,0.773398 v 11.153204 11.153208 l -0.77339,0.77339 c -0.75325,0.75325 -0.84338,0.7734 -3.45994,0.7734 -2.61655,0 -2.70668,-0.0202 -3.45993,-0.7734 z"
         style="fill:#424242;fill-opacity:1;stroke-width:0.26458332"
         inkscape:connector-curvature="0" />
      <path
         id="path4695"
         d="m 100.48352,209.21648 -0.773402,-0.7734 v -11.1532 -11.15321 l 0.773402,-0.77339 c 0.75325,-0.75325 0.84338,-0.7734 3.45993,-0.7734 2.61656,0 2.70669,0.0201 3.45994,0.7734 l 0.77339,0.77339 v 11.15321 11.1532 l -0.77339,0.7734 c -0.75325,0.75325 -0.84338,0.7734 -3.45994,0.7734 -2.61655,0 -2.70668,-0.0201 -3.45993,-0.7734 z M 59.049636,191.3837 c -1.742598,-1.7426 -1.937433,-2.04091 -1.937433,-2.96638 0,-0.99569 0.253933,-1.2834 7.855506,-8.90051 5.30281,-5.31365 8.090817,-7.92325 8.579646,-8.03061 0.97455,-0.21405 1.932781,0.33166 3.576719,2.03694 1.655045,1.7168 2.032076,2.41118 1.823892,3.35904 -0.108448,0.49376 -2.692225,3.25512 -8.031445,8.58344 -7.617113,7.60158 -7.904824,7.85551 -8.900508,7.85551 -0.92547,0 -1.223779,-0.19484 -2.966377,-1.93743 z m 77.920744,-5.91808 c -5.33922,-5.32832 -7.923,-8.08968 -8.03144,-8.58344 -0.20819,-0.94786 0.16884,-1.64224 1.82389,-3.35904 1.64394,-1.70528 2.60217,-2.25099 3.57672,-2.03694 0.48883,0.10736 3.27683,2.71696 8.57964,8.03061 7.60158,7.61711 7.85551,7.90482 7.85551,8.90051 0,0.92547 -0.19484,1.22378 -1.93743,2.96638 -1.7426,1.74259 -2.04091,1.93743 -2.96638,1.93743 -0.99568,0 -1.2834,-0.25393 -8.90051,-7.85551 z m -36.86339,-9.62239 c -12.469785,-1.6808 -22.52883,-11.09093 -25.155301,-23.53252 -0.682972,-3.23525 -0.642133,-8.86563 0.08743,-12.05425 2.630448,-11.49654 11.174372,-20.04046 22.670904,-22.67091 3.188627,-0.72957 8.819017,-0.7704 12.054257,-0.0874 5.92521,1.25083 10.89328,3.94438 15.17795,8.22904 9.45157,9.45158 11.26859,24.32985 4.3821,35.88183 -4.16848,6.99256 -11.12757,12.00956 -19.05991,13.74082 -2.76552,0.60359 -7.59838,0.83835 -10.15743,0.49342 z m 3.83646,-29.39257 v -21.20588 l -2.05052,0.15888 c -6.849678,0.5307 -13.439338,4.9844 -16.714413,11.29664 -1.837346,3.54122 -2.26944,5.40512 -2.26944,9.78958 0,4.38446 0.432094,6.24836 2.26944,9.78958 3.375104,6.50503 10.589537,11.21752 17.375873,11.34997 l 1.38906,0.0271 z m -62.726598,3.49915 c -0.753251,-0.75325 -0.773398,-0.84338 -0.773398,-3.45993 0,-2.61655 0.02015,-2.70668 0.773398,-3.45994 l 0.773397,-0.77339 h 11.153204 11.153206 l 0.773396,0.77339 c 0.75325,0.75326 0.773398,0.84339 0.773398,3.45994 0,2.61655 -0.02013,2.70668 -0.773398,3.45993 l -0.773396,0.7734 H 53.143453 41.990249 Z m 101.599998,0 c -0.75325,-0.75325 -0.7734,-0.84338 -0.7734,-3.45993 0,-2.61655 0.0201,-2.70668 0.7734,-3.45994 l 0.77339,-0.77339 h 11.15321 11.1532 l 0.7734,0.77339 c 0.75325,0.75326 0.7734,0.84339 0.7734,3.45994 0,2.61655 -0.0201,2.70668 -0.7734,3.45993 l -0.7734,0.7734 h -11.1532 -11.15321 z M 73.119494,121.36092 c -0.291041,-0.12352 -4.011744,-3.72227 -8.268229,-7.99723 -7.482801,-7.51527 -7.739062,-7.80671 -7.739062,-8.80142 0,-0.92526 0.194943,-1.22372 1.937433,-2.96621 1.742598,-1.742593 2.040907,-1.937428 2.966377,-1.937428 0.995684,0 1.283395,0.253932 8.900508,7.855508 5.313653,5.30281 7.923246,8.09082 8.030611,8.57964 0.214048,0.97455 -0.331663,1.93278 -2.036942,3.57672 -1.977149,1.90603 -2.613771,2.18992 -3.790696,1.69042 z m 59.795826,-0.037 c -0.86762,-0.49327 -3.31821,-2.95547 -3.74133,-3.75906 -0.23125,-0.4392 -0.32775,-1.04524 -0.23422,-1.47106 0.10736,-0.48882 2.71696,-3.27683 8.03061,-8.57964 7.61711,-7.601576 7.90483,-7.855508 8.90051,-7.855508 0.92547,0 1.22378,0.194835 2.96638,1.937428 1.74334,1.74335 1.93743,2.04063 1.93743,2.96753 0,0.99747 -0.24932,1.27961 -7.87136,8.90735 -8.16179,8.16791 -8.69569,8.58768 -9.98802,7.85296 z m -32.4318,-13.70742 -0.773402,-0.77339 V 95.689882 84.536678 l 0.773402,-0.773398 c 0.75325,-0.75325 0.84338,-0.773397 3.45993,-0.773397 2.61656,0 2.70669,0.02015 3.45994,0.773397 l 0.77339,0.773398 v 11.153204 11.153208 l -0.77339,0.77339 c -0.75325,0.75325 -0.84338,0.7734 -3.45994,0.7734 -2.61655,0 -2.70668,-0.0202 -3.45993,-0.7734 z"
         style="fill:#424242;fill-opacity:1;stroke-width:0.26458332"
         inkscape:connector-curvature="0" />
      <path
         id="path4693"
         d="m 100.48352,209.21648 -0.773402,-0.7734 v -11.1532 -11.15321 l 0.773402,-0.77339 c 0.75325,-0.75325 0.84338,-0.7734 3.45993,-0.7734 2.61656,0 2.70669,0.0201 3.45994,0.7734 l 0.77339,0.77339 v 11.15321 11.1532 l -0.77339,0.7734 c -0.75325,0.75325 -0.84338,0.7734 -3.45994,0.7734 -2.61655,0 -2.70668,-0.0201 -3.45993,-0.7734 z M 59.077282,191.3939 c -1.783024,-1.74868 -1.965079,-2.0235 -1.965079,-2.96638 0,-1.00906 0.22745,-1.26706 7.855506,-8.91071 5.30281,-5.31365 8.090817,-7.92325 8.579646,-8.03061 0.97455,-0.21405 1.932781,0.33166 3.576719,2.03694 1.655045,1.7168 2.032076,2.41118 1.823892,3.35904 -0.108448,0.49376 -2.692225,3.25512 -8.031445,8.58344 -9.423709,9.40449 -8.67634,9.03025 -11.839239,5.92828 z m 77.893098,-5.92828 c -5.33922,-5.32832 -7.923,-8.08968 -8.03144,-8.58344 -0.20819,-0.94786 0.16884,-1.64224 1.82389,-3.35904 1.64394,-1.70528 2.60217,-2.25099 3.57672,-2.03694 0.48883,0.10736 3.27683,2.71696 8.57964,8.03061 9.41932,9.43857 9.05129,8.69953 5.90101,11.84981 -3.15029,3.15029 -2.41125,3.51832 -11.84982,-5.901 z m -36.50692,-9.61741 C 88.023502,174.39617 77.872223,165.16188 75.0422,152.7233 c -0.7645,-3.36014 -0.7645,-9.10671 0,-12.46684 2.610416,-11.47336 11.194473,-20.05742 22.667827,-22.66783 3.360143,-0.7645 9.106713,-0.7645 12.466853,0 7.98851,1.81754 14.70177,6.57352 18.91924,13.40323 5.84392,9.46358 5.84129,21.57482 -0.007,30.99604 -6.07798,9.79169 -17.22855,15.19065 -28.62592,13.86031 z m 3.47999,-29.39755 v -21.20588 l -2.05052,0.15888 c -6.849678,0.5307 -13.439338,4.9844 -16.714413,11.29664 -1.837346,3.54122 -2.26944,5.40512 -2.26944,9.78958 0,4.38446 0.432094,6.24836 2.26944,9.78958 3.384555,6.52325 10.554239,11.20573 17.375873,11.3481 l 1.38906,0.029 z m -62.726598,3.49915 c -0.753251,-0.75325 -0.773398,-0.84338 -0.773398,-3.45993 0,-2.61655 0.02015,-2.70668 0.773398,-3.45994 l 0.773397,-0.77339 h 11.153204 11.153206 l 0.773396,0.77339 c 0.75325,0.75326 0.773398,0.84339 0.773398,3.45994 0,2.61655 -0.02013,2.70668 -0.773398,3.45993 l -0.773396,0.7734 H 53.143453 41.990249 Z m 101.599998,0 c -0.75325,-0.75325 -0.7734,-0.84338 -0.7734,-3.45993 0,-2.61655 0.0201,-2.70668 0.7734,-3.45994 l 0.77339,-0.77339 h 11.15321 11.1532 l 0.7734,0.77339 c 0.75325,0.75326 0.7734,0.84339 0.7734,3.45994 0,2.61655 -0.0201,2.70668 -0.7734,3.45993 l -0.7734,0.7734 h -11.1532 -11.15321 z M 73.119494,121.36092 c -0.291041,-0.12352 -4.011744,-3.72227 -8.268229,-7.99723 -7.482801,-7.51527 -7.739062,-7.80671 -7.739062,-8.80142 0,-0.92526 0.194943,-1.22372 1.937433,-2.96621 1.742598,-1.742593 2.040907,-1.937428 2.966377,-1.937428 0.995684,0 1.283395,0.253932 8.900508,7.855508 5.313653,5.30281 7.923246,8.09082 8.030611,8.57964 0.214048,0.97455 -0.331663,1.93278 -2.036942,3.57672 -1.977149,1.90603 -2.613771,2.18992 -3.790696,1.69042 z m 59.795826,-0.037 c -0.86762,-0.49327 -3.31821,-2.95547 -3.74133,-3.75906 -0.23125,-0.4392 -0.32775,-1.04524 -0.23422,-1.47106 0.10736,-0.48882 2.71696,-3.27683 8.03061,-8.57964 9.43857,-9.419319 8.69953,-9.051289 11.84982,-5.90101 3.15229,3.1523 3.52149,2.41239 -5.91686,11.85781 -8.16179,8.16791 -8.69569,8.58768 -9.98802,7.85296 z m -32.4318,-13.70742 -0.773402,-0.77339 V 95.689882 84.536678 l 0.773402,-0.773398 c 0.75325,-0.75325 0.84338,-0.773397 3.45993,-0.773397 2.61656,0 2.70669,0.02015 3.45994,0.773397 l 0.77339,0.773398 v 11.153204 11.153208 l -0.77339,0.77339 c -0.75325,0.75325 -0.84338,0.7734 -3.45994,0.7734 -2.61655,0 -2.70668,-0.0202 -3.45993,-0.7734 z"
         style="fill:#424242;fill-opacity:1;stroke-width:0.26458332"
         inkscape:connector-curvature="0" />
      <path
         id="path4691"
         d="m 101.03825,209.66265 c -1.317459,-0.69192 -1.334239,-0.86066 -1.262629,-12.69638 l 0.06679,-11.03923 0.602659,-0.60243 c 0.55442,-0.55421 0.83688,-0.60244 3.52864,-0.60244 2.88677,0 2.93464,0.0101 3.57272,0.75188 l 0.64675,0.75189 -0.0743,11.21338 -0.0743,11.21338 -0.60213,0.60244 c -0.53097,0.53125 -0.90621,0.61129 -3.175,0.6773 -1.7338,0.0504 -2.78688,-0.0375 -3.22911,-0.26979 z M 59.066706,191.36662 c -3.142341,-3.14234 -3.482298,-2.44381 5.652268,-11.61402 4.183724,-4.20005 7.947016,-7.81612 8.36287,-8.0357 0.415856,-0.21959 1.016534,-0.33388 1.334844,-0.254 0.746532,0.18737 4.655931,4.19704 4.655931,4.77536 0,0.97527 -1.063691,2.17638 -8.39189,9.4761 -9.170212,9.13456 -8.471683,8.79461 -11.614023,5.65226 z m 78.038404,-5.76635 c -4.25545,-4.24647 -7.87619,-8.05647 -8.0461,-8.46666 -0.44769,-1.08083 0.0213,-1.99671 1.99057,-3.88775 1.8699,-1.79557 2.64949,-2.11296 3.75548,-1.52896 0.41585,0.21958 4.17914,3.83565 8.36287,8.0357 9.10997,9.14552 8.73217,8.3611 5.5504,11.52421 -3.17492,3.1563 -2.36499,3.5522 -11.61322,-5.67654 z m -36.73353,-9.77796 c -6.349556,-0.80212 -11.953878,-3.451 -16.544886,-7.81994 -6.343562,-6.03672 -9.363209,-13.02851 -9.348049,-21.64478 0.0086,-4.90951 0.855679,-8.53976 3.025,-12.96458 4.116975,-8.39751 11.911213,-14.23471 21.412723,-16.03626 2.270312,-0.43047 7.569452,-0.42494 10.054162,0.0105 6.42035,1.12512 11.76367,4.04414 16.48541,9.00589 9.79386,10.29167 10.74057,26.00859 2.26499,37.60232 -1.67625,2.29295 -5.1732,5.62096 -7.59246,7.22567 -5.65218,3.74913 -13.01933,5.47233 -19.75689,4.6212 z m 3.57187,-29.37165 v -21.20588 l -2.05052,0.15888 c -7.073018,0.548 -13.620159,5.07013 -16.943408,11.70284 -1.625478,3.24421 -2.040445,5.15252 -2.040445,9.38338 0,3.28602 0.08898,4.11983 0.620186,5.81151 1.533424,4.88334 4.442296,8.96281 8.243355,11.56065 3.321997,2.27043 7.40083,3.69496 10.781772,3.76552 l 1.38906,0.029 z m -62.171865,3.93725 c -1.101471,-0.56494 -1.352801,-1.4 -1.270696,-4.22194 0.06602,-2.26917 0.145995,-2.64395 0.677519,-3.175 l 0.602662,-0.60213 h 11.362383 11.362383 l 0.602663,0.60266 c 0.553741,0.55374 0.602662,0.83773 0.602662,3.49838 0,2.66027 -0.04899,2.94472 -0.602437,3.49838 l -0.602436,0.60266 -11.03923,0.0668 c -8.521662,0.0516 -11.18889,-0.01 -11.695473,-0.2698 z m 101.156045,-0.29505 c -0.74181,-0.63808 -0.75189,-0.68595 -0.75189,-3.57272 0,-2.69214 0.0482,-2.97414 0.60266,-3.52864 l 0.60267,-0.60266 h 11.36238 11.36238 l 0.60266,0.60266 c 0.55374,0.55374 0.60267,0.83773 0.60267,3.49838 0,2.66028 -0.049,2.94472 -0.60244,3.49838 l -0.60244,0.60266 -11.21339,0.0743 -11.21338,0.0743 z M 72.854911,121.11762 c -0.436563,-0.2747 -4.157266,-3.88071 -8.268229,-8.01336 -8.98307,-9.03047 -8.657787,-8.35331 -5.519976,-11.49113 3.14234,-3.142336 2.443811,-3.482293 11.614023,5.65227 4.200049,4.18373 7.816117,7.94702 8.035703,8.36287 0.219588,0.41586 0.333883,1.01654 0.253994,1.33485 -0.197186,0.78564 -4.211912,4.65617 -4.82836,4.65494 -0.271372,-5.3e-4 -0.850593,-0.22574 -1.287155,-0.50044 z m 58.301669,-1.53717 c -1.15217,-1.12122 -2.16021,-2.29903 -2.2401,-2.61733 -0.0799,-0.31831 0.0344,-0.91899 0.25399,-1.33485 0.21959,-0.41585 3.83565,-4.17914 8.0357,-8.36287 9.17021,-9.134563 8.47169,-8.794606 11.61403,-5.65227 3.14234,3.14235 3.48229,2.44382 -5.65227,11.61403 -7.29972,7.3282 -8.50083,8.39189 -9.4761,8.39189 -0.24222,0 -1.38308,-0.91737 -2.53525,-2.0386 z m -30.11833,-11.5178 c -1.317459,-0.69192 -1.334239,-0.86066 -1.262629,-12.696373 l 0.06679,-11.039229 0.602659,-0.602437 c 0.55366,-0.553453 0.83811,-0.602436 3.49838,-0.602436 2.66065,0 2.94464,0.04892 3.49838,0.602662 l 0.60266,0.602662 v 11.362383 11.362388 l -0.60213,0.60266 c -0.53105,0.53152 -0.90583,0.6115 -3.175,0.67752 -1.7338,0.0504 -2.78688,-0.0375 -3.22911,-0.2698 z"
         style="fill:#424242;fill-opacity:1;stroke-width:0.26458332"
         inkscape:connector-curvature="0" />
      <path
         id="path4689"
         d="m 101.03825,209.66265 c -1.317459,-0.69192 -1.334239,-0.86066 -1.262629,-12.69638 l 0.06679,-11.03923 0.602659,-0.60243 c 0.55366,-0.55346 0.83811,-0.60244 3.49838,-0.60244 2.66065,0 2.94464,0.0489 3.49838,0.60266 l 0.60266,0.60266 v 11.36239 11.36238 l -0.60213,0.60266 c -0.53105,0.53153 -0.90583,0.6115 -3.175,0.67752 -1.7338,0.0504 -2.78688,-0.0375 -3.22911,-0.26979 z m -41.881733,-18.3979 c -3.152661,-3.17126 -3.535724,-2.37846 5.562457,-11.51215 4.183724,-4.20005 7.947016,-7.81612 8.36287,-8.0357 0.415856,-0.21959 1.016534,-0.33388 1.334844,-0.254 0.746532,0.18737 4.655931,4.19704 4.655931,4.77536 0,0.97527 -1.063691,2.17638 -8.39189,9.4761 -9.145521,9.10997 -8.361099,8.73217 -11.524212,5.55039 z m 78.049653,-5.55039 c -7.3282,-7.29972 -8.39189,-8.50083 -8.39189,-9.4761 0,-0.57832 3.9094,-4.58799 4.65593,-4.77536 0.31831,-0.0799 0.91899,0.0344 1.33485,0.254 0.41585,0.21958 4.17914,3.83565 8.36287,8.0357 9.10997,9.14552 8.73217,8.3611 5.5504,11.52421 -3.17127,3.15267 -2.37847,3.53573 -11.51216,-5.56245 z m -36.62675,-9.86543 c -12.862629,-1.60926 -22.892252,-10.87646 -25.617905,-23.67051 -0.557183,-2.61538 -0.627972,-7.9718 -0.141618,-10.71562 2.166416,-12.22206 11.874415,-21.93006 24.096471,-24.09647 2.743822,-0.48636 8.100242,-0.41557 10.715622,0.14161 6.34148,1.351 11.36158,4.14566 15.7444,8.76482 7.01559,7.39392 9.68089,17.68183 7.14945,27.59651 -2.11276,8.27485 -8.0129,15.46891 -15.7501,19.20412 -4.86125,2.34683 -11.09055,3.41433 -16.19632,2.77554 z m 3.36403,-29.35905 v -21.16667 l -1.38906,0.004 c -3.085228,0.009 -7.113186,1.39155 -10.390374,3.5672 -4.618786,3.0663 -7.770537,7.70882 -9.007268,13.26769 -0.613325,2.75678 -0.414821,7.66295 0.41597,10.28099 1.143876,3.60465 3.300145,7.14992 5.719426,9.40369 3.702894,3.44958 8.839488,5.68856 13.262246,5.78086 l 1.38906,0.029 z m -62.171865,3.89803 c -1.101471,-0.56494 -1.352801,-1.4 -1.270696,-4.22194 0.06602,-2.26917 0.145995,-2.64395 0.677519,-3.175 l 0.602662,-0.60213 h 11.362383 11.362383 l 0.602663,0.60266 c 0.553741,0.55374 0.602662,0.83773 0.602662,3.49838 0,2.66027 -0.04899,2.94472 -0.602437,3.49838 l -0.602436,0.60266 -11.03923,0.0668 c -8.521662,0.0516 -11.18889,-0.01 -11.695473,-0.2698 z m 101.599995,0 c -1.10147,-0.56494 -1.3528,-1.4 -1.2707,-4.22194 0.066,-2.26917 0.146,-2.64395 0.67752,-3.175 l 0.60267,-0.60213 h 11.36238 11.36238 l 0.60266,0.60266 c 0.55374,0.55374 0.60267,0.83773 0.60267,3.49838 0,2.66027 -0.049,2.94472 -0.60244,3.49838 l -0.60244,0.60266 -11.03923,0.0668 c -8.52166,0.0516 -11.18889,-0.01 -11.69547,-0.2698 z M 72.854911,121.11762 c -0.436563,-0.2747 -4.157266,-3.88071 -8.268229,-8.01336 -8.958716,-9.00598 -8.595786,-8.24227 -5.418104,-11.40131 3.17126,-3.152665 2.378466,-3.535728 11.512151,5.56245 4.200049,4.18373 7.816117,7.94702 8.035703,8.36287 0.219588,0.41586 0.333883,1.01654 0.253994,1.33485 -0.197186,0.78564 -4.211912,4.65617 -4.82836,4.65494 -0.271372,-5.3e-4 -0.850593,-0.22574 -1.287155,-0.50044 z m 58.301669,-1.53717 c -1.15217,-1.12122 -2.16021,-2.29903 -2.2401,-2.61733 -0.0799,-0.31831 0.0344,-0.91899 0.25399,-1.33485 0.21959,-0.41585 3.83565,-4.17914 8.0357,-8.36287 9.14552,-9.109968 8.3611,-8.732168 11.52422,-5.55039 3.15266,3.17126 3.53572,2.37846 -5.56246,11.51215 -7.29972,7.3282 -8.50083,8.39189 -9.4761,8.39189 -0.24222,0 -1.38308,-0.91737 -2.53525,-2.0386 z m -30.11833,-11.5178 c -1.317459,-0.69192 -1.334239,-0.86066 -1.262629,-12.696373 l 0.06679,-11.039229 0.602659,-0.602437 c 0.55366,-0.553453 0.83811,-0.602436 3.49838,-0.602436 2.66065,0 2.94464,0.04892 3.49838,0.602662 l 0.60266,0.602662 v 11.362383 11.362388 l -0.60213,0.60266 c -0.53105,0.53152 -0.90583,0.6115 -3.175,0.67752 -1.7338,0.0504 -2.78688,-0.0375 -3.22911,-0.2698 z"
         style="fill:#424242;fill-opacity:1;stroke-width:0.26458332"
         inkscape:connector-curvature="0" />
      <path
         id="path4687"
         d="m 101.03825,209.66265 c -1.317459,-0.69192 -1.334239,-0.86066 -1.262629,-12.69638 l 0.06679,-11.03923 0.602659,-0.60243 c 0.55366,-0.55346 0.83811,-0.60244 3.49838,-0.60244 2.66065,0 2.94464,0.0489 3.49838,0.60266 l 0.60266,0.60266 v 11.36239 11.36238 l -0.60213,0.60266 c -0.53105,0.53153 -0.90583,0.6115 -3.175,0.67752 -1.7338,0.0504 -2.78688,-0.0375 -3.22911,-0.26979 z m -41.881733,-18.3979 c -3.152661,-3.17126 -3.535724,-2.37846 5.562457,-11.51215 7.299713,-7.3282 8.500829,-8.39189 9.476099,-8.39189 0.604814,0 4.529582,3.8651 4.728152,4.65627 0.08982,0.35786 -0.0084,0.9597 -0.222711,1.36529 -0.21083,0.39892 -3.819736,4.14836 -8.019785,8.33209 -9.145521,9.10997 -8.361099,8.73217 -11.524212,5.55039 z m 78.049653,-5.55039 c -7.3282,-7.29972 -8.39189,-8.50083 -8.39189,-9.4761 0,-0.57832 3.9094,-4.58799 4.65593,-4.77536 0.31831,-0.0799 0.91899,0.0344 1.33485,0.254 0.41585,0.21958 4.17914,3.83565 8.36287,8.0357 9.10997,9.14552 8.73217,8.3611 5.5504,11.52421 -3.17127,3.15267 -2.37847,3.53573 -11.51216,-5.56245 z m -36.62675,-9.86738 c -7.098387,-0.88084 -13.06898,-3.90347 -18.070927,-9.14846 -5.353799,-5.61393 -7.990782,-12.27375 -8.001691,-20.20864 -0.01138,-8.27866 2.730871,-14.86969 8.648914,-20.78773 5.918047,-5.91805 12.509074,-8.6603 20.787734,-8.64892 8.32893,0.0115 14.87298,2.73416 20.78774,8.64892 5.91804,5.91804 8.66029,12.50907 8.64891,20.78773 -0.0114,8.31156 -2.74649,14.88531 -8.64891,20.78773 -3.56283,3.56282 -7.00463,5.7391 -11.4148,7.21767 -3.70342,1.24161 -9.05088,1.80911 -12.73697,1.3517 z m 3.36403,-29.3571 v -21.16667 l -1.38906,0.002 c -3.359463,0.004 -8.140511,1.76999 -11.328356,4.18325 -5.464603,4.13681 -8.442753,10.10529 -8.447394,16.92933 -0.0049,7.27878 3.39108,13.66513 9.385376,17.64953 3.275552,2.17725 7.126176,3.50979 10.258084,3.54988 l 1.52135,0.0195 z m -62.171865,3.89803 c -1.101471,-0.56494 -1.352801,-1.4 -1.270696,-4.22194 0.06602,-2.26917 0.145995,-2.64395 0.677519,-3.175 l 0.602662,-0.60213 h 11.362383 11.362383 l 0.602663,0.60266 c 0.553741,0.55374 0.602662,0.83773 0.602662,3.49838 0,2.66027 -0.04899,2.94472 -0.602437,3.49838 l -0.602436,0.60266 -11.03923,0.0668 c -8.521662,0.0516 -11.18889,-0.01 -11.695473,-0.2698 z m 101.599995,0 c -1.10147,-0.56494 -1.3528,-1.4 -1.2707,-4.22194 0.066,-2.26917 0.146,-2.64395 0.67752,-3.175 l 0.60267,-0.60213 h 11.36238 11.36238 l 0.60266,0.60266 c 0.55374,0.55374 0.60267,0.83773 0.60267,3.49838 0,2.66027 -0.049,2.94472 -0.60244,3.49838 l -0.60244,0.60266 -11.03923,0.0668 c -8.52166,0.0516 -11.18889,-0.01 -11.69547,-0.2698 z M 72.854911,121.12439 c -0.436563,-0.27842 -4.157266,-3.88748 -8.268229,-8.02013 -8.958716,-9.00598 -8.595786,-8.24227 -5.418104,-11.40131 3.17126,-3.152665 2.378466,-3.535728 11.512151,5.56245 4.200049,4.18373 7.808955,7.93317 8.019785,8.33209 0.580022,1.09749 0.248658,1.79451 -1.829014,3.8473 -2.151594,2.12583 -2.855418,2.42014 -4.016589,1.6796 z m 60.324999,0.24243 c -0.78541,-0.32458 -4.36563,-4.11956 -4.36563,-4.6275 0,-0.97284 1.06762,-2.17812 8.39189,-9.47392 9.14552,-9.109968 8.3611,-8.732168 11.52422,-5.55039 3.15266,3.17126 3.53572,2.37846 -5.56246,11.51215 -6.84253,6.86923 -8.56496,8.4292 -9.24728,8.37512 -0.11637,-0.009 -0.4497,-0.11518 -0.74074,-0.23546 z m -32.14166,-13.30417 c -1.317459,-0.69192 -1.334239,-0.86066 -1.262629,-12.696373 l 0.06679,-11.039229 0.602659,-0.602437 c 0.55366,-0.553453 0.83811,-0.602436 3.49838,-0.602436 2.66065,0 2.94464,0.04892 3.49838,0.602662 l 0.60266,0.602662 v 11.362383 11.362388 l -0.60213,0.60266 c -0.53105,0.53152 -0.90583,0.6115 -3.175,0.67752 -1.7338,0.0504 -2.78688,-0.0375 -3.22911,-0.2698 z"
         style="fill:#424242;fill-opacity:1;stroke-width:0.26458332"
         inkscape:connector-curvature="0" />
      <path
         id="path4685"
         d="m 101.03825,209.66265 c -1.317459,-0.69192 -1.334239,-0.86066 -1.262629,-12.69638 l 0.06679,-11.03923 0.602659,-0.60243 c 0.55366,-0.55346 0.83811,-0.60244 3.49838,-0.60244 2.66065,0 2.94464,0.0489 3.49838,0.60266 l 0.60266,0.60266 v 11.36239 11.36238 l -0.60213,0.60266 c -0.53105,0.53153 -0.90583,0.6115 -3.175,0.67752 -1.7338,0.0504 -2.78688,-0.0375 -3.22911,-0.26979 z m -41.881733,-18.3979 c -3.152661,-3.17126 -3.535724,-2.37846 5.562457,-11.51215 4.183724,-4.20005 7.940143,-7.81256 8.347598,-8.0278 1.058074,-0.55894 1.663713,-0.27946 3.71375,1.71376 2.143683,2.08427 2.428613,2.65041 1.923431,3.82179 -0.200967,0.46598 -3.810447,4.27028 -8.021063,8.45401 -9.162212,9.10369 -8.372009,8.72317 -11.526173,5.55039 z m 78.056663,-5.55039 c -4.20569,-4.18373 -7.82208,-7.94015 -8.03643,-8.3476 -0.56266,-1.06955 -0.27565,-1.66868 1.82272,-3.80493 2.03927,-2.07608 2.73717,-2.4091 3.83637,-1.83064 0.39892,0.20995 4.14836,3.82273 8.33209,8.02842 9.09051,9.13823 8.70108,8.33008 5.53821,11.49296 -3.16288,3.16287 -2.35473,3.5523 -11.49296,-5.53821 z m -36.44473,-9.88168 c -6.400367,-0.67797 -12.48562,-3.55564 -17.306981,-8.18434 -4.453535,-4.27558 -7.467184,-9.90994 -8.634433,-16.14307 -0.468244,-2.50043 -0.392896,-8.16845 0.142292,-10.70393 1.298975,-6.15393 3.735949,-10.64875 8.186388,-15.09919 4.450443,-4.45044 8.945261,-6.88742 15.099194,-8.18639 2.53548,-0.53519 8.2035,-0.61054 10.70393,-0.1423 6.23313,1.16725 11.8675,4.1809 16.14307,8.63444 4.76944,4.96795 7.49593,10.84712 8.1793,17.63709 1.22053,12.12717 -5.21689,23.71951 -16.24097,29.24635 -4.95733,2.48532 -10.72845,3.52853 -16.27179,2.94134 z m 3.175,-29.3428 v -21.16667 l -1.38906,0.002 c -1.72268,0.002 -5.203527,0.8194 -7.141251,1.67635 -4.682437,2.0708 -8.877429,6.25328 -10.932299,10.8997 -2.429976,5.49461 -2.262458,12.55465 0.427175,18.00333 3.276007,6.63655 10.756497,11.64784 17.514085,11.73294 l 1.52135,0.0192 z m -62.171865,3.89803 c -1.101471,-0.56494 -1.352801,-1.4 -1.270696,-4.22194 0.06602,-2.26917 0.145995,-2.64395 0.677519,-3.175 l 0.602662,-0.60213 h 11.362383 11.362383 l 0.602663,0.60266 c 0.553741,0.55374 0.602662,0.83773 0.602662,3.49838 0,2.66027 -0.04899,2.94472 -0.602437,3.49838 l -0.602436,0.60266 -11.03923,0.0668 c -8.521662,0.0516 -11.18889,-0.01 -11.695473,-0.2698 z m 101.599995,0 c -1.10147,-0.56494 -1.3528,-1.4 -1.2707,-4.22194 0.066,-2.26917 0.146,-2.64395 0.67752,-3.175 l 0.60267,-0.60213 h 11.36238 11.36238 l 0.60266,0.60266 c 0.55374,0.55374 0.60267,0.83773 0.60267,3.49838 0,2.66027 -0.049,2.94472 -0.60244,3.49838 l -0.60244,0.60266 -11.03923,0.0668 c -8.52166,0.0516 -11.18889,-0.01 -11.69547,-0.2698 z M 73.119494,121.23902 c -0.436562,-0.19522 -4.216796,-3.79985 -8.40052,-8.01026 -9.1037,-9.16179 -8.723188,-8.37163 -5.550396,-11.52581 3.162207,-3.143665 2.363874,-3.529339 11.514112,5.56245 4.210616,4.18373 7.820096,7.98803 8.021063,8.45401 0.505182,1.17138 0.220252,1.73752 -1.923431,3.82179 -2.032839,1.9765 -2.526107,2.20527 -3.660828,1.69782 z m 60.060416,0.12235 c -0.75979,-0.32182 -4.0141,-3.73486 -4.21964,-4.42545 -0.0988,-0.33186 -0.005,-0.90056 0.2181,-1.32292 0.21524,-0.40745 3.82775,-4.16387 8.0278,-8.3476 9.14552,-9.109968 8.3611,-8.732168 11.52422,-5.55039 3.14366,3.1622 3.52933,2.36387 -5.56246,11.51411 -6.32329,6.36394 -8.73788,8.51838 -9.38421,8.37316 -0.0411,-0.009 -0.31277,-0.11764 -0.60381,-0.24091 z m -32.14166,-13.29872 c -1.317459,-0.69192 -1.334239,-0.86066 -1.262629,-12.696373 l 0.06679,-11.039229 0.602659,-0.602437 c 0.55366,-0.553453 0.83811,-0.602436 3.49838,-0.602436 2.66065,0 2.94464,0.04892 3.49838,0.602662 l 0.60266,0.602662 v 11.362383 11.362388 l -0.60213,0.60266 c -0.53105,0.53152 -0.90583,0.6115 -3.175,0.67752 -1.7338,0.0504 -2.78688,-0.0375 -3.22911,-0.2698 z"
         style="fill:#424242;fill-opacity:1;stroke-width:0.26458332"
         inkscape:connector-curvature="0" />
      <path
         id="path4683"
         d="m 101.03825,209.66265 c -1.317459,-0.69192 -1.334239,-0.86066 -1.262629,-12.69638 l 0.06679,-11.03923 0.602659,-0.60243 c 0.55366,-0.55346 0.83811,-0.60244 3.49838,-0.60244 2.66065,0 2.94464,0.0489 3.49838,0.60266 l 0.60266,0.60266 v 11.36239 11.36238 l -0.60213,0.60266 c -0.53105,0.53153 -0.90583,0.6115 -3.175,0.67752 -1.7338,0.0504 -2.78688,-0.0375 -3.22911,-0.26979 z M 59.198486,191.29087 c -3.227719,-3.14104 -3.60157,-2.35953 5.520488,-11.54023 4.183724,-4.21061 7.988029,-7.82009 8.454011,-8.02106 1.173472,-0.50609 1.73015,-0.22376 3.893211,1.97451 2.834479,2.88061 3.261138,2.08664 -6.216083,11.56768 -6.815839,6.81858 -8.162263,8.04936 -8.80573,8.04936 -0.589179,0 -1.227716,-0.45553 -2.845897,-2.03026 z m 77.958164,-5.8411 c -4.3298,-4.32924 -7.97517,-8.13924 -8.10082,-8.46666 -0.34684,-0.90383 0.0662,-1.61588 2.05075,-3.53544 1.99124,-1.92601 2.45344,-2.18185 3.3324,-1.84453 0.32616,0.12517 4.13512,3.77014 8.46436,8.09993 6.86599,6.86686 7.87136,7.97509 7.87136,8.67665 0,0.65102 -0.39419,1.19847 -2.06856,2.87285 -1.67438,1.67437 -2.22183,2.06856 -2.87285,2.06856 -0.70156,0 -1.80978,-1.00537 -8.67664,-7.87136 z m -34.93299,-9.4962 c -7.392705,-0.62679 -13.494962,-3.29275 -18.568707,-8.11231 -10.525346,-9.99805 -12.188237,-25.93348 -3.980344,-38.14349 1.380019,-2.05291 5.423818,-6.09671 7.476728,-7.47673 5.151049,-3.46267 10.680562,-5.16271 16.792113,-5.16271 16.36335,0 29.43155,13.0682 29.43155,29.43155 0,11.3008 -6.1871,21.29704 -16.33467,26.39123 -4.35277,2.18513 -10.42673,3.44466 -14.81667,3.07246 z m 1.71979,-29.46369 v -21.16667 h -1.30562 c -4.704447,0 -10.400572,2.65507 -14.092615,6.56884 -3.922524,4.15808 -5.770578,8.86309 -5.766575,14.68127 0.0039,5.70219 1.963166,10.56473 5.915035,14.68019 3.608303,3.75768 9.131427,6.32599 13.728425,6.38388 l 1.52135,0.0192 z m -62.171865,3.89803 c -1.101471,-0.56494 -1.352801,-1.4 -1.270696,-4.22194 0.06602,-2.26917 0.145995,-2.64395 0.677519,-3.175 l 0.602662,-0.60213 h 11.362383 11.362383 l 0.602663,0.60266 c 0.553741,0.55374 0.602662,0.83773 0.602662,3.49838 0,2.66027 -0.04899,2.94472 -0.602437,3.49838 l -0.602436,0.60266 -11.03923,0.0668 c -8.521662,0.0516 -11.18889,-0.01 -11.695473,-0.2698 z m 101.599995,0 c -1.10147,-0.56494 -1.3528,-1.4 -1.2707,-4.22194 0.066,-2.26917 0.146,-2.64395 0.67752,-3.175 l 0.60267,-0.60213 h 11.36238 11.36238 l 0.60266,0.60266 c 0.55374,0.55374 0.60267,0.83773 0.60267,3.49838 0,2.66027 -0.049,2.94472 -0.60244,3.49838 l -0.60244,0.60266 -11.03923,0.0668 c -8.52166,0.0516 -11.18889,-0.01 -11.69547,-0.2698 z M 73.378217,121.36606 c -0.294264,-0.11799 -4.074498,-3.76248 -8.40052,-8.09887 -6.913877,-6.93044 -7.865494,-7.98328 -7.865494,-8.70214 0,-0.6685 0.375402,-1.19099 2.056375,-2.8621 1.661396,-1.65166 2.211135,-2.044318 2.862108,-2.044318 0.703037,0 1.810371,1.002238 8.687889,7.863308 4.335187,4.32483 7.985384,8.13483 8.111551,8.46667 0.346879,0.91236 -0.06052,1.61845 -2.049804,3.55259 -1.897399,1.84481 -2.519749,2.17864 -3.402105,1.82486 z m 59.801693,-0.007 c -0.75718,-0.31718 -4.01352,-3.73045 -4.21964,-4.42298 -0.0986,-0.33115 -0.005,-0.90147 0.21648,-1.32292 0.21435,-0.40745 3.83074,-4.16387 8.03643,-8.3476 9.13823,-9.090511 8.33008,-8.701081 11.49296,-5.53821 1.64292,1.64292 2.06856,2.22851 2.06856,2.8459 0,0.66714 -1.13461,1.90809 -8.00365,8.75375 -4.402,4.38703 -8.24177,8.03881 -8.53281,8.11507 -0.29104,0.0763 -0.76729,0.0389 -1.05833,-0.083 z m -32.14166,-13.29625 c -1.317459,-0.69192 -1.334239,-0.86066 -1.262629,-12.696373 l 0.06679,-11.039229 0.602659,-0.602437 c 0.55366,-0.553453 0.83811,-0.602436 3.49838,-0.602436 2.66065,0 2.94464,0.04892 3.49838,0.602662 l 0.60266,0.602662 v 11.362383 11.362388 l -0.60213,0.60266 c -0.53105,0.53152 -0.90583,0.6115 -3.175,0.67752 -1.7338,0.0504 -2.78688,-0.0375 -3.22911,-0.2698 z"
         style="fill:#424242;fill-opacity:1;stroke-width:0.26458332"
         inkscape:connector-curvature="0" />
      <path
         id="path4681"
         d="m 101.13473,209.61036 c -0.53295,-0.23196 -0.93045,-0.66314 -1.12448,-1.21975 -0.204141,-0.58559 -0.300132,-4.19513 -0.300132,-11.28564 0,-11.45272 0.01905,-11.60084 1.575592,-12.24558 0.52988,-0.21948 1.6268,-0.29498 3.19587,-0.21996 3.84576,0.18387 3.54672,-0.79468 3.64567,11.92991 0.0929,11.94459 0.0395,12.43687 -1.41394,13.04417 -1.13782,0.47541 -4.48343,0.47352 -5.57858,-0.003 z M 59.180764,191.25257 c -1.64292,-1.64292 -2.068561,-2.22851 -2.068561,-2.8459 0,-0.66671 1.145564,-1.92244 8.04936,-8.82345 7.150886,-7.148 8.142465,-8.04612 8.883457,-8.04612 0.686101,0 1.190479,0.35638 2.842654,2.00856 1.652175,1.65217 2.008555,2.15655 2.008555,2.84265 0,0.74099 -0.898115,1.73257 -8.046116,8.88346 -6.901013,6.90379 -8.156744,8.04936 -8.823452,8.04936 -0.617387,0 -1.202978,-0.42564 -2.845897,-2.06856 z m 77.866546,-5.97561 c -7.18196,-7.17085 -8.05664,-8.13529 -8.05664,-8.88346 0,-0.69256 0.35113,-1.19041 2.00856,-2.84784 1.65743,-1.65743 2.15528,-2.00856 2.84784,-2.00856 0.74817,0 1.71261,0.87468 8.88346,8.05664 6.84556,6.85616 8.04417,8.17089 8.04417,8.82345 0,0.60426 -0.43852,1.20533 -2.06856,2.83538 -1.63005,1.63004 -2.23112,2.06856 -2.83538,2.06856 -0.65256,0 -1.96729,-1.19862 -8.82345,-8.04417 z m -34.55907,-9.34823 c -13.491572,-0.6342 -24.970654,-10.63768 -27.523894,-23.98576 -0.537755,-2.81133 -0.531931,-8.12514 0.01201,-10.96954 1.677223,-8.77045 7.397766,-16.48753 15.208752,-20.51681 4.703559,-2.42632 8.515787,-3.3563 13.758332,-3.3563 1.8899,0 4.22691,0.17591 5.45309,0.41046 11.84933,2.26655 21.25539,11.65208 23.514,23.46265 0.54999,2.87599 0.54999,8.15691 0,11.0329 -2.74649,14.36182 -15.78007,24.6107 -30.42229,23.9224 z m 1.45521,-29.43885 v -21.16667 l -1.38906,0.005 c -1.80636,0.006 -4.516015,0.58841 -6.539096,1.40557 -4.829564,1.95074 -9.16459,6.06185 -11.376509,10.78886 -2.528818,5.40425 -2.542873,12.28727 -0.03637,17.81524 1.501513,3.31151 4.393893,6.71712 7.517487,8.8514 2.857381,1.95238 7.200175,3.42693 10.169918,3.4531 l 1.65364,0.0146 z m -61.81872,4.05023 c -1.142976,-0.22357 -1.512079,-1.0096 -1.629742,-3.47062 -0.144433,-3.02092 0.271129,-4.12371 1.713898,-4.54821 0.69881,-0.20561 4.311293,-0.27231 11.655104,-0.2152 12.667514,0.0985 11.733787,-0.17375 11.925414,3.47725 0.07184,1.36867 -0.0084,2.60763 -0.208061,3.2126 -0.563832,1.70843 -0.738081,1.73201 -12.495537,1.69125 -5.716367,-0.0198 -10.648851,-0.086 -10.961076,-0.14707 z m 101.6,0 c -1.16856,-0.22858 -1.51866,-1.00547 -1.63319,-3.62419 -0.12295,-2.8111 0.22888,-3.85195 1.47676,-4.36884 0.55129,-0.22835 3.70559,-0.29219 11.64706,-0.2357 12.95426,0.0921 11.98209,-0.18512 12.17404,3.47195 0.0718,1.36867 -0.008,2.60763 -0.20806,3.2126 -0.56383,1.70843 -0.73808,1.73201 -12.49554,1.69125 -5.71637,-0.0198 -10.64885,-0.086 -10.96107,-0.14707 z m -70.208361,-29.1058 c -0.218281,-0.0757 -3.998515,-3.72557 -8.40052,-8.11078 -6.869785,-6.84357 -8.003646,-8.08323 -8.003646,-8.75044 0,-1.12918 3.78528,-4.914458 4.914458,-4.914458 0.666708,0 1.922439,1.145568 8.823452,8.049358 7.148001,7.15089 8.046116,8.14247 8.046116,8.88346 0,0.6865 -0.347234,1.17714 -1.962324,2.77276 -1.936832,1.91347 -2.640439,2.33966 -3.417536,2.0701 z m 59.663541,-0.0754 c -0.29104,-0.12192 -1.35268,-1.05898 -2.3592,-2.08236 -2.83434,-2.88181 -3.26114,-2.08751 6.21608,-11.56855 6.90101,-6.90379 8.15674,-8.049358 8.82345,-8.049358 1.12918,0 4.91446,3.785278 4.91446,4.914458 0,0.66714 -1.13461,1.90809 -8.00365,8.75375 -4.402,4.38703 -8.24177,8.03881 -8.53281,8.11507 -0.29104,0.0763 -0.76729,0.0389 -1.05833,-0.083 z m -31.78852,-13.15212 c -0.31222,-0.0611 -0.78847,-0.35488 -1.05833,-0.65289 -0.457601,-0.50535 -0.496225,-1.25735 -0.573412,-11.163868 -0.0571,-7.328717 0.0096,-10.935994 0.215201,-11.634707 0.425391,-1.445779 1.525761,-1.858404 4.568041,-1.712951 3.77403,0.180439 3.48555,-0.779462 3.58436,11.926982 0.0929,11.944594 0.0395,12.436864 -1.41394,13.044164 -0.84151,0.35161 -3.93762,0.46404 -5.32192,0.19327 z"
         style="fill:#424242;fill-opacity:1;stroke-width:0.26458332"
         inkscape:connector-curvature="0" />
    </g>
  </g>
</svg>
